<svg width="26" height="27" viewBox="0 0 26 27" fill="none" xmlns="http://www.w3.org/2000/svg">
<path d="M17.7072 26.0013C22.2405 26.0013 25.9231 22.3069 25.9492 17.7984L26 11.1613L25.9231 10.7991L25.7056 10.3458L25.3369 10.0592C24.8589 9.68536 22.4346 10.0853 21.782 9.49256C21.3195 9.07049 21.2479 8.30713 21.1072 7.2702C20.8466 5.26409 20.6825 5.15988 20.3673 4.47988C19.2274 2.06473 16.1297 0.251415 14.0037 0H8.23939C3.7061 0 0 3.69828 0 8.21594V17.7984C0 22.3069 3.7061 26 8.23939 26H17.7072V26.0013ZM8.34491 6.71006H12.9134C13.7862 6.71006 14.4922 7.41871 14.4922 8.27977C14.4922 9.13563 13.7862 9.85079 12.9134 9.85079H8.34491C7.47212 9.85079 6.76868 9.13563 6.76868 8.27977C6.76868 7.41871 7.47212 6.71006 8.34491 6.71006ZM6.76868 17.6759C6.76868 16.8162 7.47212 16.1127 8.34491 16.1127H17.629C18.4953 16.1127 19.1988 16.8162 19.1988 17.6759C19.1988 18.5253 18.4953 19.2391 17.629 19.2391H8.34491C7.92911 19.2392 7.53015 19.0749 7.23492 18.7821C6.93969 18.4893 6.77211 18.0917 6.76868 17.6759Z" fill="white"/>
</svg>
