<svg width="27" height="27" viewBox="0 0 27 27" fill="none" xmlns="http://www.w3.org/2000/svg">
<path d="M22.2633 0H4.56672C2.05971 0 0.142578 1.91713 0.142578 4.42414V22.1207C0.142578 24.6277 2.05971 26.5449 4.56672 26.5449H22.2633C24.7703 26.5449 26.6874 24.6277 26.6874 22.1207V4.42414C26.6874 1.91713 24.7703 0 22.2633 0ZM13.415 8.84828C15.922 8.84828 17.8391 10.7654 17.8391 13.2724C17.8391 15.7794 15.922 17.6966 13.415 17.6966C10.908 17.6966 8.99086 15.7794 8.99086 13.2724C8.99086 10.7654 10.908 8.84828 13.415 8.84828ZM19.0189 5.89886C19.0189 4.86656 19.9037 4.1292 20.7886 4.1292C21.6734 4.1292 22.5582 5.01403 22.5582 5.89886C22.5582 6.78368 21.8209 7.66851 20.7886 7.66851C19.7563 7.66851 19.0189 6.93116 19.0189 5.89886ZM22.2633 23.5954H4.56672C3.68189 23.5954 3.09201 23.0055 3.09201 22.1207V13.2724H6.04143C6.04143 17.4016 9.2858 20.646 13.415 20.646C17.5442 20.646 20.7886 17.4016 20.7886 13.2724H23.738V22.1207C23.738 23.0055 23.1481 23.5954 22.2633 23.5954Z" fill="#E5E5E5"/>
</svg>
