<svg width="568" height="327" viewBox="0 0 568 327" fill="none" xmlns="http://www.w3.org/2000/svg">
<path d="M353.641 180.976C349.232 183.961 343.461 184.852 338.354 183.339C337.781 183.171 337.161 182.925 336.898 182.384C336.504 181.576 337.132 180.663 337.246 179.772C337.572 177.211 333.927 176.106 332.764 173.802C332.305 172.892 332.268 171.836 332.191 170.82C331.482 161.809 326.788 153.69 322.833 145.561C322.549 144.97 322.256 144.327 322.377 143.678C322.496 143.033 323.24 142.474 323.815 142.792C323.386 144.323 324.327 146.11 325.831 146.624C326.517 144.002 326.891 140.559 324.544 139.21C323.743 138.751 322.786 138.669 321.865 138.624C318.236 138.444 314.591 138.648 311.01 139.231C310.409 139.326 309.755 139.426 309.235 139.117C308.773 138.844 308.535 138.318 308.211 137.889C307.33 136.711 304.986 136.072 303.74 137.098C302.359 138.24 303.412 140.72 300.767 141.065C299.265 141.259 297.826 140.488 296.512 139.74C295.104 138.942 293.665 138.116 292.638 136.867C292.275 136.419 291.954 135.917 291.468 135.612C290.53 135.023 289.325 135.341 288.222 135.33C287.116 135.321 285.769 134.516 286.066 133.454C286.157 133.123 286.398 132.859 286.588 132.57C287.979 130.438 286.138 127.402 283.714 126.631C281.289 125.859 278.67 126.628 276.24 127.394C272.6 128.544 268.96 129.695 265.317 130.841C263.941 131.276 262.498 131.715 261.08 131.456C259.862 131.234 258.587 130.514 257.476 131.054C255.967 131.787 256.21 134.032 255.301 135.441C254.432 136.786 252.574 137.218 251.679 138.548C250.638 140.088 251.257 142.145 251.149 144.001C250.936 147.577 247.997 150.292 245.41 152.775C242.825 155.256 240.2 158.49 240.864 162.011C241.068 163.092 241.579 164.113 241.653 165.208C241.715 166.119 241.474 167.016 241.234 167.893C240.477 170.665 239.72 173.436 238.96 176.208C241.502 180.704 244.316 185.048 247.379 189.207C248.89 191.259 250.492 193.297 252.587 194.747C254.677 196.2 257.347 197.01 259.808 196.357C260.91 196.062 261.94 195.489 263.075 195.372C264.658 195.207 266.213 195.951 267.798 195.882C269.651 195.804 271.261 194.647 272.75 193.542C274.239 192.438 275.859 191.294 277.711 191.24C279.567 191.186 281.563 192.795 281.17 194.606C281.083 195.002 280.891 195.396 280.95 195.798C281.067 196.66 282.186 196.957 283.044 196.84C283.906 196.724 284.826 196.405 285.607 196.787C286.669 197.309 286.79 198.807 286.437 199.94C285.96 201.475 284.933 202.769 284.251 204.222C283.572 205.678 283.287 207.522 284.258 208.801C284.758 209.465 285.522 209.874 286.143 210.426C287.18 211.341 287.799 212.637 288.301 213.924C290.457 219.437 290.934 225.584 289.735 231.376C289.203 233.935 287.577 236.022 287.063 238.385C286.485 241.051 288.611 244.03 289.857 246.201C291.759 249.507 292.885 253.257 293.126 257.062C293.218 258.578 293.192 260.167 293.885 261.518C294.408 262.53 295.284 263.304 296.007 264.184C298.776 267.563 299.125 272.25 299.352 276.613C299.935 277.391 301.139 277.382 302.02 276.97C302.899 276.556 303.607 275.844 304.465 275.385C306.612 274.232 309.236 274.832 311.656 274.559C315.824 274.088 319.481 270.647 320.203 266.515C320.404 265.367 320.406 264.163 320.902 263.112C321.643 261.527 323.428 260.452 323.669 258.716C323.76 258.028 323.59 257.313 323.74 256.635C324.215 254.493 327.49 253.821 327.772 251.644C327.91 250.599 327.272 249.636 326.864 248.662C325.662 245.773 326.676 242.125 329.195 240.272C330.138 239.578 331.239 239.128 332.202 238.461C336.833 235.248 336.73 228.278 334.778 222.99C334.014 220.927 333.037 218.843 333.177 216.648C333.271 215.201 333.851 213.828 334.526 212.546C336.223 209.321 338.573 206.442 341.394 204.136C343.231 202.634 345.342 201.283 346.39 199.154C347.032 197.853 347.211 196.373 347.715 195.013C348.626 192.533 350.537 190.582 352.027 188.401C353.51 186.225 354.614 183.432 353.641 180.976ZM326.642 234.672C326.515 235.578 325.494 236.428 324.711 235.957C324.68 233.533 324.16 231.146 323.642 228.777C323.392 227.641 323.143 226.506 322.894 225.375C322.777 224.846 322.616 224.257 322.146 224.002C321.805 223.819 321.375 223.849 321.064 223.624C320.598 223.285 320.63 222.555 320.244 222.125C319.742 221.566 318.794 221.764 318.154 221.365C317.523 220.969 317.372 220.128 317.284 219.383L316.321 211.177C316.286 210.861 316.252 210.516 316.421 210.243C316.607 209.94 316.979 209.823 317.311 209.697C318.745 209.154 319.956 208.046 320.621 206.664C320.903 206.076 321.096 205.439 321.481 204.914C322.876 203.022 324.748 203.586 324.908 205.442C325.128 208.021 324.105 207.694 322.66 208.601C321.554 209.295 319.647 210.463 318.884 211.619C317.734 213.364 318.755 213.853 319.547 215.549C320.279 217.123 319.579 219.24 320.734 220.54C321.478 221.384 322.73 221.534 323.682 222.137C325.169 223.08 325.719 224.987 325.818 226.74C325.916 228.497 325.689 230.289 326.13 231.993C326.355 232.882 326.766 233.765 326.642 234.672Z" fill="#EEEEEE"/>
<path d="M341.054 238.415C340.109 240.142 342.04 242.146 341.882 244.107C341.722 246.118 339.471 247.38 339.012 249.344C338.822 250.152 338.96 250.999 339.148 251.809C339.506 253.359 340.047 254.867 340.755 256.292C340.982 256.751 341.234 257.21 341.608 257.559C342.762 258.638 344.755 258.276 345.877 257.163C346.996 256.049 347.429 254.426 347.665 252.863C347.899 251.301 347.993 249.689 348.615 248.237C349.52 246.124 351.527 244.341 351.413 242.046C351.356 240.9 350.757 239.856 350.491 238.739C350.227 237.622 350.452 236.204 351.498 235.733C351.61 236.466 351.723 237.198 351.838 237.931C354.811 237.002 351.164 227.175 347.935 232.147C346.621 234.172 347.922 235.536 345.311 236.582C343.901 237.146 341.905 236.861 341.054 238.415Z" fill="#EEEEEE"/>
<path d="M567.267 63.2213C567.188 62.8888 566.923 62.6235 566.659 62.3884C564.868 60.744 562.87 59.3245 560.725 58.1883C562.076 58.0708 563.477 57.9432 564.68 57.2973C565.884 56.6614 566.855 55.3685 566.678 54.0173C566.375 51.7068 563.106 50.3657 563.437 48.0642C563.593 47.0265 564.493 45.9787 564.004 45.0484C563.662 44.4115 562.841 44.2458 562.114 44.1473C558.336 43.6379 554.556 43.1286 550.766 42.6293C550.932 44.0689 550.53 45.6742 549.367 46.5462C548.191 47.4082 546.215 47.1239 545.655 45.7817C545.469 45.3126 545.449 44.763 545.128 44.3622C544.452 43.5003 543.09 43.9995 542.052 44.4014C539.831 45.2634 537.285 45.2634 535.062 44.3913C534.631 44.2145 534.161 43.9794 533.984 43.5495C533.72 42.9137 534.161 42.2185 534.2 41.5323C534.259 40.358 533.043 39.4468 531.869 39.3393C530.704 39.2419 529.569 39.711 528.443 40.0737C525.183 41.1315 521.315 41.2681 518.632 39.1345C517.838 38.5076 517.182 37.705 516.329 37.1665C515.125 36.4031 513.647 36.2463 512.228 36.0997C508.574 35.7269 504.933 35.3553 501.281 34.9836C500.929 34.9444 500.526 34.9243 500.233 35.1303C499.763 35.4728 499.841 36.1881 499.684 36.7456C499.391 37.8326 498.159 38.4001 497.041 38.4785C495.915 38.5568 494.78 38.2927 493.663 38.4203C492.832 38.5087 492.019 38.821 491.186 38.7729C490.344 38.7236 489.435 38.1371 489.454 37.3042C488.404 37.9602 487.709 39.1546 487.672 40.3983C485.547 40.6334 482.873 39.1154 483.334 37.021C483.46 36.4825 483.774 36.0023 483.824 35.4549C484.109 32.0473 475.686 31.294 473.786 32.7627C473.268 33.1634 472.868 33.7019 472.378 34.1328C470.312 35.934 466.611 35.2198 465.358 32.7716C462.38 32.4 459.357 32.419 456.37 32.8108C455.157 30.7544 452.004 31.7238 449.986 33.0067C447.97 34.2896 445.032 35.5523 443.495 33.722C448.587 32.5668 453.412 30.2563 457.515 27.0256C457.926 26.7021 458.377 26.261 458.279 25.7326C458.22 25.3699 457.907 25.1158 457.603 24.8998C455.713 23.5878 453.391 22.8926 451.092 22.952C449.408 22.9911 447.41 23.2945 446.343 22.0016C445.679 21.209 445.609 19.9843 444.798 19.3284C444.024 18.7015 442.917 18.8481 441.937 19.0149C439.772 19.4067 437.6 19.7985 435.435 20.1892C435.102 20.2485 434.731 20.3269 434.497 20.5709C434.193 20.9034 434.212 21.4127 434.182 21.8728C433.996 24.7319 430.404 26.7491 427.857 25.4181C427.066 24.9972 426.39 24.3311 425.529 24.0669C424.44 23.7434 423.276 24.1151 422.207 24.4878C417.714 26.045 413.23 27.601 408.746 29.1581C409.951 29.9798 411.527 30.2451 412.937 29.8723C413.357 30.6268 412.261 31.2928 411.418 31.4686C407.992 32.1839 404.575 32.8981 401.149 33.6034C403.105 35.0922 405.005 36.6684 406.826 38.3229C407.707 37.7061 408.54 39.3113 408.208 40.3401C407.884 41.3677 407.267 42.6405 408.05 43.3749C407.002 43.0223 406.102 42.2487 405.593 41.2502C406.141 40.8483 406.671 40.4375 407.217 40.0267C406.024 40.2718 404.712 39.4882 404.348 38.3229C402.166 37.902 400.08 36.9617 398.327 35.5915C397.975 36.4142 398.453 37.4911 399.306 37.7945C398.503 37.902 397.691 38.0005 396.888 38.0979C397.152 39.3516 398.278 40.3692 399.551 40.5159C397.944 40.9278 396.154 40.545 394.842 39.5274C396.035 37.7262 394.284 34.8672 392.128 35.1213C393.364 35.2881 393.569 37.0602 393.029 38.1762C392.483 39.3024 391.523 40.311 391.543 41.5547C391.563 43.0816 392.981 44.913 391.797 45.8824C393.235 47.0869 395.919 44.8939 397.123 46.3235C397.495 46.7735 397.534 47.3903 397.692 47.9489C398.162 49.6235 400.002 50.7889 401.717 50.4945C400.727 52.0606 398.379 50.5146 397.301 49.0067C396.234 47.4989 393.825 46.0011 392.895 47.5963C392.592 48.1257 392.65 48.7616 392.65 49.3594C392.591 53.7162 387.479 57.1719 383.417 55.5957C384.963 53.686 388.596 54.4405 389.782 52.2956C390.261 51.4146 390.133 50.3377 389.988 49.3493C389.507 46.1186 389.036 42.8868 388.558 39.6561C388.843 38.1673 388.95 36.6404 388.882 35.1325C387.177 35.7303 384.437 35.6519 384.494 33.8496C383.046 36.2486 381.597 38.6374 380.147 41.0364C379.266 42.476 378.601 44.7473 380.108 45.5007C381.115 45.0887 382.292 45.9417 382.576 46.9985C382.869 48.0463 382.498 49.1623 382.016 50.1418C379.844 44.1294 368.847 46.9011 365.991 41.183C364.679 41.6924 365.873 43.7096 367.193 44.1898C368.524 44.6689 370.345 45.5208 369.858 46.8429C369.484 47.8806 368.057 47.8806 366.959 47.8022C363.787 47.5772 360.546 48.3116 357.765 49.8777C357.52 48.7616 357.267 47.6556 357.022 46.5485C354.711 48.1828 352.388 49.8183 350.08 51.4639C348.954 52.2565 347.758 53.0792 346.387 53.2259C345.016 53.3636 343.44 52.5408 343.265 51.1796C343.088 49.8083 345.075 48.6138 345.956 49.6717C346.339 47.1653 342.912 45.0697 340.855 46.5574C342.217 48.8679 342.256 51.9038 340.933 54.2434C340.443 55.1144 339.69 55.9371 338.71 56.0939C337.722 56.2405 336.588 55.3886 336.793 54.4102C335.538 55.5162 334.834 57.2099 334.921 58.8745C332.886 59.5406 330.457 58.7469 329.195 57.004C329.351 57.9734 329.507 58.9327 329.665 59.9022C328.195 61.4783 324.984 60.3432 324.837 58.1894C324.798 57.5536 324.963 56.9267 324.963 56.2898C324.963 54.1158 323.044 52.5005 321.302 51.1986C323.906 52.187 326.532 53.1766 329.136 54.1651C330.603 54.7237 332.17 55.2912 333.707 54.9968C335.96 54.5658 337.409 51.5411 335.41 49.9739C331.818 47.1642 327.677 45.0495 323.289 43.7857C322.027 43.4241 320.676 43.1297 319.432 43.5316C318.414 43.8551 317.054 44.501 316.505 43.5898C317.524 43.7365 318.62 43.3447 319.315 42.5711C317.19 42.101 315.036 41.7976 312.862 41.6901C310.357 43.9122 308.651 47.0656 309.378 50.2381C310.493 55.1233 316.838 59.2171 314.518 63.6511C316.7 63.1608 318.982 62.6817 321.147 63.2302C322.31 63.5135 323.437 64.1997 324.202 65.1198C324.191 65.0717 324.202 65.0225 324.211 64.9732C324.858 64.7583 325.553 64.5321 326.218 64.7191C326.874 64.8948 327.414 65.6684 327.08 66.2762C326.855 66.6971 326.269 67.0497 326.475 67.4807C326.61 67.755 326.973 67.7942 327.257 67.8815C328.06 68.1266 328.51 69.1644 328.138 69.9177C326.984 69.8494 325.828 69.7901 324.672 69.742C324.281 70.5838 323.752 71.3864 323.381 72.2294C321.823 75.7444 322.959 79.7777 323.085 83.6162C323.144 85.5842 322.693 87.7771 321.714 89.4809C321.95 89.4317 322.184 89.3835 322.42 89.3432C326.778 88.5988 331.749 89.7059 334.424 93.231C337.087 96.755 336.197 102.817 332.104 104.471C330.547 105.098 328.735 105.078 327.317 105.969C326.739 106.322 326.309 106.949 326.112 107.603C328.755 106.106 331.477 104.666 334.464 104.109C333.808 105.518 332.505 106.595 331.007 106.968C331.505 107.291 331.34 108.133 330.842 108.456C330.343 108.78 329.687 108.721 329.108 108.603C328.522 108.486 327.914 108.329 327.337 108.475C326.827 108.603 326.425 108.994 326.231 109.474C326.132 109.689 326.084 109.924 326.084 110.159C326.084 110.325 326.112 110.473 326.16 110.628C327.679 109.355 330.106 109.316 331.654 110.56C332.251 111.04 332.721 111.666 333.357 112.097C334.061 112.567 334.981 112.782 335.522 113.448C336.049 114.124 335.678 115.475 334.846 115.298C334.816 115.719 335.257 116.023 335.667 116.101C336.078 116.179 336.529 116.149 336.901 116.336C337.763 116.786 337.605 118.176 336.853 118.784C336.098 119.391 335.052 119.44 334.08 119.45C331.536 119.49 328.901 119.509 326.57 118.471C325.474 117.991 324.487 117.276 323.349 116.875C322.223 116.473 320.853 116.433 319.932 117.207C319.501 117.57 319.216 118.078 318.805 118.47C317.817 119.419 316.142 119.547 315.027 118.753C314.107 118.087 313.656 116.853 313.871 115.737C312.815 116.804 311.914 118.038 311.267 119.38C311.825 120.966 312.384 122.571 312.942 124.158C313.128 124.676 313.305 125.185 313.49 125.695C314.028 127.252 314.91 129.073 316.545 129.18C318.621 129.318 320.697 126.498 322.342 129.043C322.654 129.533 322.753 130.12 322.753 130.707C322.744 131.863 324.329 133.312 325.182 132.411C325.083 131.579 324.994 130.688 325.377 129.935C325.759 129.191 326.806 128.73 327.471 129.25C327.921 129.601 328.011 130.238 328.04 130.797C328.079 131.629 328.04 132.472 327.932 133.293C327.678 135.261 326.893 137.308 325.23 138.364C323.927 139.187 322.069 139.775 323.124 141.517C323.369 141.898 324.358 141.458 324.633 141.83C325.25 142.692 324.819 143.602 324.906 144.621C325.072 146.785 327.53 147.872 328.873 149.574C330.733 151.924 330.342 155.292 331.263 158.151C333.132 163.997 340.493 167.747 340.083 173.866C339.917 176.245 338.752 179.231 340.711 180.603C342.023 181.513 343.815 180.867 345.262 180.191C347.976 178.938 350.697 177.674 353.419 176.412C354.525 175.902 355.7 175.325 356.268 174.239C356.562 173.671 356.66 173.005 357.071 172.515C357.679 171.799 358.727 171.702 359.616 171.409C361.623 170.733 362.965 168.843 363.973 166.974C365.06 164.946 365.912 162.794 366.518 160.57C366.676 159.984 366.821 159.366 366.676 158.769C366.146 156.605 362.358 156.399 362.163 154.176C362.085 153.246 362.73 152.424 363.033 151.542C363.336 150.66 363.005 149.358 362.074 149.368C361.516 151.014 360.908 152.727 359.667 153.931C358.414 155.145 356.297 155.654 354.927 154.587C353.911 153.803 353.576 152.442 352.881 151.365C351.825 149.701 349.906 148.692 348.985 146.95C348.065 145.207 349.416 142.27 351.238 143.024C352.13 146.323 354.39 149.223 357.386 150.886C359.237 150.259 361.019 149.418 362.683 148.38C363.516 147.714 364.612 148.957 364.701 150.014C364.788 151.082 364.623 152.374 365.484 152.991C365.923 153.314 366.511 153.333 367.06 153.333C371.544 153.333 376.017 152.815 380.375 151.786C379.485 154.39 381.884 157.523 384.635 157.327C384.302 158.395 383.236 159.188 382.118 159.198C382.658 160.246 383.224 161.343 384.185 162.047C385.144 162.742 386.603 162.899 387.445 162.067C388.238 161.294 388.346 159.854 389.376 159.424C390.569 158.925 391.754 160.423 391.656 161.715C391.557 163.007 390.745 164.113 390.314 165.337C389.444 167.833 390.257 170.575 391.059 173.091C392.616 177.947 394.232 182.931 397.413 186.926C398.558 185.849 399.705 184.782 400.85 183.705C402.398 183.969 402.446 186.192 401.956 187.67C401.458 189.167 400.996 191.175 402.339 191.987C403.543 192.712 405.157 191.546 405.422 190.176C405.686 188.796 405.061 187.435 404.453 186.171C403.66 184.555 402.877 182.93 402.095 181.305C401.819 180.746 401.537 180.149 401.585 179.522C401.624 178.984 401.889 178.504 402.115 178.015C402.819 176.438 403.044 174.636 402.732 172.932C406.932 170.798 410.448 167.332 412.609 163.142C412.944 162.515 413.256 161.849 413.834 161.428C415.557 160.174 418.456 161.937 419.982 160.439C422.107 161.232 423.9 162.857 424.907 164.894C425.642 166.383 426.327 168.359 427.981 168.487C425.445 169.525 423.722 172.286 423.919 175.018C426.472 175.664 429.293 173.246 429.039 170.632C430.037 170.064 431.359 170.76 431.888 171.777C432.418 172.796 432.358 174.01 432.288 175.145C432.093 178.602 431.888 182.049 431.691 185.495C431.632 186.522 431.595 187.629 432.161 188.481C432.701 189.284 433.719 189.734 434.09 190.635C434.65 191.957 433.533 193.622 434.258 194.865C434.65 195.521 435.421 195.815 436.02 196.275C437.293 197.254 437.723 198.967 438.644 200.289C439.564 201.611 441.69 202.473 442.686 201.209C440.564 199.545 439.202 196.941 439.064 194.237C439.036 193.621 439.055 192.975 438.8 192.416C438.487 191.712 437.811 191.251 437.243 190.732C433.914 187.688 434.326 182.43 435.001 177.964C436.547 180.227 439.025 181.822 441.727 182.292C440.857 184.084 441.611 186.482 443.342 187.461C443.46 185.708 444.772 184.103 446.467 183.643C447.201 183.437 447.983 183.428 448.68 183.124C450.765 182.223 450.99 179.404 450.884 177.141C450.845 176.25 450.794 175.32 450.315 174.576C449.513 173.351 447.886 173.068 446.613 172.342C444.333 171.051 443.216 168.005 444.136 165.537C445.047 163.08 447.877 161.494 450.451 162.012C451.304 162.385 450.921 163.736 450.178 164.294C449.434 164.851 448.416 165.185 448.072 166.056C447.582 167.25 449.031 168.582 450.295 168.308C451.559 168.044 452.371 166.703 452.46 165.41C452.536 164.118 452.066 162.864 451.597 161.651C454.319 162.247 457.316 161.288 459.186 159.232C459.715 158.654 460.185 157.979 460.86 157.587C462.181 156.814 464.072 157.235 465.159 156.148C465.99 155.315 465.932 153.984 466.187 152.837C466.666 150.703 468.311 149.068 469.291 147.119C470.248 145.172 471.208 142.175 470.69 140.021C470.318 138.454 469.505 137.034 468.947 135.527C468.545 134.459 468.271 133.353 468.125 132.216C468.066 131.756 468.027 131.247 468.242 130.836C468.625 130.102 469.565 129.926 470.269 129.495C471.317 128.849 471.865 127.488 471.552 126.304C468.644 127.273 465.237 126.539 462.994 124.443C463.641 123.189 465.079 122.603 466.324 121.937C467.577 121.281 468.878 120.204 468.821 118.784C469.612 118.784 470.397 118.784 471.179 118.774C471.239 120.066 470.631 121.369 469.612 122.162C470.69 123.092 472.305 122.21 473.578 121.545C474.842 120.879 476.957 120.879 477.113 122.298C477.26 123.659 475.193 124.58 475.478 125.921C476.927 125.43 478.473 127.36 477.691 128.672C477.475 129.024 477.133 129.367 477.191 129.778C477.261 130.277 477.847 130.473 478.288 130.717C479.512 131.364 480.041 133.048 479.414 134.282C480.267 133.616 481.116 132.96 481.969 132.294C482.164 133.077 483.045 133.606 483.839 133.43C484.621 133.244 485.17 132.363 484.995 131.579C484.827 130.806 484.114 130.267 483.878 129.523C483.527 128.397 484.328 127.144 483.937 126.027C483.634 125.156 482.704 124.696 481.95 124.147C481.197 123.599 480.521 122.611 480.971 121.798C481.244 121.299 481.833 121.093 482.313 120.799C484.712 119.31 485.221 115.071 488.039 114.974C488.608 114.954 489.165 115.13 489.725 115.052C491.33 114.827 491.888 112.878 492.641 111.439C494.304 108.237 498.183 106.681 499.935 103.517C501.277 101.089 501.121 98.1229 501.914 95.4497C502.492 93.5109 503.589 91.4937 502.914 89.585C502.072 87.2062 498.225 86.7361 496.833 88.8507C497.058 87.6562 497.283 86.4618 497.517 85.2573C496.675 87.9697 491.085 85.5215 495.952 82.8684C499.201 81.1065 502.109 78.6874 504.451 75.8283C505.242 74.8589 505.997 73.8111 507.036 73.1059C510.864 70.5211 516.131 73.7227 520.616 72.5965C520.773 73.0376 520.919 73.4775 521.077 73.9186C519.872 74.4178 518.676 74.9272 517.482 75.4265C520.01 76.6119 522.73 73.801 525.522 73.9186C526.334 73.9477 527.509 73.9578 527.557 73.1551C526.803 73.0376 525.834 72.6268 525.972 71.8823C526.02 71.6081 526.217 71.392 526.412 71.1972C527.137 70.4237 527.873 69.6591 528.605 68.8867C529.83 67.5949 531.808 66.2236 533.207 67.3397C534.265 68.1916 533.776 70.2379 532.443 70.5222C533.313 71.3931 534.794 70.6006 535.664 69.7196C536.536 68.8487 537.662 67.7908 538.816 68.2408C539.14 67.5949 539.14 66.8012 538.837 66.1553C539.768 65.6359 540.912 65.5184 541.922 65.8318C541.305 66.3501 540.883 67.1046 540.756 67.9072C540.667 68.4267 540.706 68.955 540.55 69.4543C539.993 71.3148 537.504 71.5297 535.751 72.3816C532.657 73.8794 531.581 77.8455 528.801 79.8527C528.115 80.352 527.342 80.7236 526.774 81.3505C525.549 82.7016 525.707 84.8073 526.275 86.5402C526.861 88.2731 527.792 89.9377 527.9 91.759C527.92 92.1026 527.909 92.4441 527.88 92.7776C527.753 93.9922 529.24 94.6672 530.093 93.8053C530.299 93.5903 530.504 93.3844 530.709 93.1784C531.698 92.1597 532.728 91.1119 533.226 89.7809C533.57 88.8417 533.724 87.6954 534.597 87.2062C535.233 86.8435 536.027 87.0003 536.751 86.8738C537.476 86.7562 538.249 86.0219 537.888 85.376C536.703 84.5341 536.909 82.4095 538.221 81.7927C538.769 82.0479 539.318 82.3121 539.865 82.5763C541.168 81.9796 539.2 79.8448 539.916 78.6012C540.189 78.1209 540.845 77.8276 540.826 77.2791C540.806 76.594 539.837 76.4765 539.162 76.584C538.712 74.3619 540.249 71.9226 542.442 71.3752C542.403 71.8353 542.364 72.3055 542.325 72.7656C543.412 72.0805 544.497 71.3943 545.587 70.6991C545.781 71.2286 545.967 71.757 546.153 72.2954C547.456 72.9715 548.475 70.0039 549.826 70.5525C550.119 70.6801 550.314 70.9443 550.558 71.1402C551.529 71.9327 553.272 71.3271 553.536 70.1024C554.543 65.4613 560.184 65.2463 564.911 64.8545C566.003 64.7784 567.52 64.2982 567.267 63.2213ZM358.482 119.882C357.688 120.598 356.543 120.793 355.486 120.627C355.23 120.842 355.415 121.283 355.7 121.46C355.984 121.637 356.336 121.685 356.581 121.92C357.023 122.341 356.845 123.065 356.913 123.663C357.042 124.642 357.873 125.387 358.099 126.336C358.501 128.05 356.649 129.626 354.887 129.636C351.207 129.665 348.62 126.68 347.672 123.468C347.124 121.637 346.076 116.654 348.897 116.37C348.044 115.254 348.936 114.02 348.407 112.826C348.113 112.18 347.388 111.866 346.898 111.347C345.918 110.309 346.067 108.556 346.898 107.391C347.73 106.225 349.063 105.54 350.394 105.021C351.697 104.512 353.164 104.121 354.447 104.649C355.739 105.178 356.514 107.009 355.553 108.018C354.514 109.105 352.39 108.478 351.44 109.652C350.844 110.376 351.048 111.521 351.646 112.247C352.254 112.971 353.155 113.373 354.025 113.715C354.515 113.911 355.044 114.136 355.241 114.617C355.543 115.332 354.926 116.056 354.534 116.721C354.154 117.397 354.231 118.572 355.005 118.572C355.759 118.562 355.877 117.495 356.296 116.868C356.884 115.987 358.402 116.123 358.99 117.014C359.568 117.895 359.264 119.177 358.482 119.882ZM450.391 85.6435C450.226 85.967 450.017 86.2905 449.91 86.642C449.792 87.0339 449.792 87.4548 449.696 87.8465C449.401 89.0208 448.315 89.7843 447.335 90.4996C446.651 90.9888 445.975 91.5373 445.564 92.2717C445.399 92.575 445.28 92.9086 445.094 93.212C444.126 94.8464 441.218 95.1799 443.048 92.8985C444.174 91.4791 445.858 89.3936 447.259 88.16C447.738 87.7391 448.326 87.3865 448.65 86.8379C449.177 85.9368 448.883 84.8107 448.923 83.7729C448.951 82.7352 449.744 81.4915 450.744 81.7859C451.114 83.0487 450.988 84.4591 450.391 85.6435ZM325.192 67.5692C325.203 67.6766 325.203 67.7841 325.192 67.9016C325.164 68.3035 325.074 68.6852 324.947 69.0569C325.105 69.067 325.25 69.067 325.369 69.0569C325.603 68.5576 325.456 68.0684 325.192 67.5692ZM317.546 92.4094C319.404 92.2717 320.795 91.0974 321.716 89.482C319.953 89.9018 318.221 90.7638 317.546 92.4094Z" fill="#EEEEEE"/>
<path d="M332.105 104.472C330.548 105.099 328.735 105.078 327.317 105.97C326.739 106.322 326.309 106.949 326.112 107.604C325.876 107.731 325.642 107.868 325.408 107.996C321.277 110.345 322.821 105.176 318.954 105.205C315.185 105.234 316.272 111.549 314.588 110.991C314.157 111.951 314.863 113.097 314.56 114.104C314.45 114.457 314.236 114.76 314.079 115.094C313.982 115.3 313.913 115.515 313.873 115.74C312.817 116.807 311.916 118.04 311.269 119.383C311.221 119.236 311.17 119.098 311.122 118.952C310.202 118.041 308.518 119.011 308.223 120.264C307.93 121.516 308.479 122.799 308.851 124.033C309.222 125.266 309.349 126.774 308.429 127.685C307.95 128.164 307.167 128.498 307.862 129.594C308.108 129.996 308.594 130.153 309.067 130.084C310.064 129.938 310.916 131.788 309.937 131.846C308.135 132.061 306.812 130.172 306.246 128.44C305.688 126.716 305.294 124.709 303.778 123.71C303.034 123.22 302.027 122.986 301.663 122.173C301.055 120.812 302.817 119.216 302.172 117.875C301.536 116.563 299.399 117.042 298.293 116.074C297.364 115.241 297.491 113.645 296.591 112.794C296.132 112.353 295.495 112.187 294.907 111.962C293.047 111.247 291.51 109.759 290.735 107.927C289.668 108.123 289.825 109.71 290.335 110.669C292.292 114.331 295.405 117.365 299.118 119.236C297.914 119.843 297.317 121.214 296.827 122.477C296.073 124.356 295.329 126.246 294.584 128.135C293.449 127.999 292.264 127.832 291.352 127.147C290.442 126.462 289.953 125.061 290.629 124.151C291.872 125.356 294.28 124.925 295.026 123.368C295.769 121.792 294.595 119.657 292.872 119.461C293.595 117.405 291.285 115.603 289.25 114.83C287.212 114.056 284.715 113.078 284.47 110.913C283.54 110.08 282.043 110.502 281.033 111.226C280.025 111.961 279.184 112.969 277.998 113.371C276.824 113.773 275.149 113.097 275.217 111.853C274.612 112.383 274.004 112.901 273.396 113.429C274.778 113.821 273.995 116.034 272.72 116.69C271.447 117.337 269.715 117.748 269.401 119.149C269.274 119.707 269.44 120.294 269.431 120.881C269.42 121.762 269.009 122.595 268.609 123.388C267.61 125.336 266.327 127.51 264.173 127.911C262.909 128.145 260.981 128.283 261.159 129.546C259.337 127.96 256.791 127.225 254.403 127.607C254.549 126.491 254.696 125.375 254.834 124.269C254.012 124.141 253.178 124.024 252.356 123.906C253.629 122.144 254.088 119.803 253.581 117.689C253.297 116.503 252.953 114.84 254.099 114.419C253.483 113.87 253.033 113.136 252.808 112.333C254.521 111.58 256.517 111.502 258.3 112.098C259.073 112.354 259.809 112.735 260.591 112.97C262.804 113.637 265.466 112.892 266.739 110.972C268.012 109.043 267.484 106.048 265.457 104.941C264.39 104.363 263.096 104.314 262.048 103.687C261.021 103.06 260.484 101.337 261.519 100.72C262.372 102.022 264.331 102.424 265.623 101.572C265.015 100.535 264.751 99.31 264.868 98.1167C265.818 97.7249 267.041 98.626 266.924 99.6537C268.609 99.6929 270.254 98.5376 270.791 96.9413C270.988 96.3928 271.067 95.786 271.447 95.336C271.957 94.7383 272.838 94.6509 273.572 94.3767C275.393 93.6916 276.471 91.4684 275.872 89.628C278.223 88.5411 280.846 88.0519 283.422 88.1985C282.512 86.5149 281.573 84.7227 281.66 82.804C281.747 80.8942 283.304 78.9173 285.204 79.0942C285.499 80.2103 285.479 81.4047 285.165 82.5208C285.722 82.6484 286.271 82.7659 286.83 82.8935C285.626 83.8921 284.401 85.8209 285.654 86.7612C286.654 87.5056 288.083 86.5463 289.306 86.8004C289.865 86.9179 290.344 87.2907 290.893 87.4172C293.37 88.034 295.768 83.9615 297.864 85.4201C298.57 85.9104 298.854 86.9089 300.059 86.7612C300.724 86.6727 301.3 86.2518 301.624 85.6653C302.319 84.4608 302.094 83.0704 302.232 81.7394C302.348 80.5842 302.908 79.3013 304.033 78.9979C305.266 78.6654 306.451 79.683 307.724 79.8207C309.868 80.0659 311.552 77.1184 310.249 75.3945C308.625 76.6382 306.539 77.255 304.492 77.0882C303.886 76.0314 305.148 74.8851 306.254 74.3859C310.062 72.6922 314.381 72.1727 318.485 72.9172C319.217 72.2321 318.161 71.1541 317.26 70.7242C316.359 70.3033 315.36 69.148 316.134 68.5212C313.432 67.4342 311.062 71.2235 308.144 71.36C305.158 71.5067 303.424 67.5125 304.53 64.7319C305.647 61.9613 308.418 60.2676 311.012 58.7799C309.299 56.0876 304.814 55.8716 302.855 58.3881C303.1 60.4445 302.27 62.5982 300.701 63.9494C299.086 65.3397 296.453 66.6125 296.999 68.679C297.481 70.4902 300.369 71.3612 299.977 73.2026C299.626 74.8963 296.853 74.9165 296.197 76.5128C295.727 77.6781 296.639 79.1065 296.079 80.2327C295.513 81.3689 293.897 81.4081 292.879 82.1715C292.184 82.6909 291.792 83.5126 291.156 84.1003C290.509 84.6779 289.344 84.9029 288.873 84.1686C288.414 83.4443 289.022 82.5532 289.355 81.7607C290.373 79.4211 288.905 76.8161 287.485 74.6915C284.606 74.4564 283.117 79.9002 280.445 78.7942C279.691 78.4807 279.25 77.7173 278.869 76.993C277.811 75.0351 276.744 73.0381 276.341 70.844C275.95 68.651 276.332 66.2028 277.869 64.5975C279.916 62.4628 283.352 62.3352 285.625 60.4556C288.169 58.3511 288.786 54.4432 291.52 52.5939C293.153 51.4879 295.661 50.8901 295.855 48.9221C294.054 49.0688 292.252 49.2166 290.451 49.3632C291.275 47.8553 293.224 47.0717 294.848 47.5911C294.172 46.1426 295.848 44.5855 297.443 44.3605C299.039 44.1455 300.714 44.6056 302.251 44.1455C303.503 43.7638 304.503 42.8336 305.707 42.3141C306.744 41.8641 307.9 41.7555 309.036 41.6973C310.308 41.638 311.591 41.638 312.864 41.6973C310.359 43.9194 308.653 47.0728 309.379 50.2453C310.494 55.1305 316.839 59.2243 314.52 63.6583C316.701 63.168 318.984 62.6889 321.149 63.2374C322.312 63.5207 323.438 64.2069 324.204 65.127C324.094 65.9789 324.789 66.7816 325.192 67.5752C325.203 67.6827 325.203 67.7902 325.192 67.9077C325.164 68.3096 325.075 68.6913 324.947 69.063C323.066 68.9947 318.653 68.0835 320.767 71.1675C321.708 70.0514 322.146 70.7667 323.233 70.6492C323.683 70.5999 324.105 70.1298 323.94 69.7089C324.185 69.7189 324.43 69.729 324.674 69.7481C324.282 70.5899 323.754 71.3925 323.382 72.2354C321.825 75.7504 322.96 79.7838 323.087 83.6223C323.146 85.5903 322.695 87.7832 321.715 89.487C321.952 89.4377 322.186 89.3896 322.422 89.3493C326.78 88.6049 331.751 89.712 334.425 93.2371C337.087 96.7566 336.197 102.817 332.105 104.472Z" fill="#EEEEEE"/>
<path d="M250.728 87.6517C250.721 88.7364 251.766 89.717 251.478 90.7626C251.191 91.7958 249.728 92.2637 249.665 93.3339C249.595 94.5295 251.262 94.9616 252.436 94.722C254.605 94.281 256.581 92.96 257.819 91.1264C258.425 90.2286 258.663 88.6883 257.64 88.3301C259.039 87.8386 260.441 87.3472 261.84 86.8558C262.939 87.7927 264.123 89.3723 263.216 90.4962C262.631 91.2216 261.252 91.7231 261.668 92.5582C261.838 92.8985 262.287 93.0686 262.367 93.4414C262.45 93.8343 262.076 94.1567 261.769 94.4142C260.443 95.5269 259.663 97.2609 259.711 98.9915C261.7 97.1534 264.438 96.1504 267.145 96.2668C267.779 96.2937 268.487 96.3575 268.971 95.9489C269.457 95.5403 269.242 94.4869 268.617 94.5888C269.374 94.0448 270.133 93.5007 270.891 92.9567C271.061 92.8335 271.239 92.7014 271.324 92.5089C271.519 92.0555 271.079 91.5619 270.611 91.4029C270.143 91.2439 269.622 91.2675 269.175 91.057C268.186 90.5936 268.021 89.3017 267.679 88.264C267.34 87.2263 266.122 86.1763 265.285 86.8759C265.496 85.8796 265.7 84.8106 265.308 83.8714C264.914 82.9322 263.659 82.293 262.842 82.8986C262.367 82.1967 263.466 81.5474 264.042 80.9261C264.668 80.25 264.657 79.0746 264.003 78.4242C263.349 77.7727 262.158 77.7738 261.519 78.4399C261.606 76.5212 262.013 74.1603 263.841 73.5748C264.343 73.4136 264.891 73.4237 265.391 73.2524C265.891 73.0812 266.368 72.6244 266.285 72.1028C266.373 72.7129 267.359 72.7453 267.724 72.2494C268.091 71.7535 268.015 71.0695 267.921 70.4594C266.496 70.052 265.881 72.452 264.469 72.9043C263.822 73.1136 263.078 72.8651 262.448 73.1293C260.959 73.7528 261.359 76.5257 259.803 76.9566C259.436 77.0585 259.029 76.9891 258.677 77.1402C257.968 77.4447 257.892 78.4242 258.062 79.1765C258.235 79.9287 258.539 80.7392 258.213 81.4377C258.034 81.8217 257.669 82.2034 257.816 82.6008C258.013 83.1247 258.782 82.9825 259.311 83.1695C260.639 83.6408 259.915 85.2024 259.226 85.8181C258.364 86.5882 256.911 86.3867 255.894 86.2457C254.368 86.0307 250.748 84.6986 250.728 87.6517Z" fill="#EEEEEE"/>
<path d="M284.022 118.796C283.841 118.646 283.659 118.496 283.48 118.346C284.042 118.211 284.416 117.628 284.449 117.051C284.481 116.473 284.235 115.913 283.911 115.435C283.522 114.86 282.851 114.32 282.195 114.546C281.36 114.834 281.347 116.016 281.626 116.854C281.906 117.691 282.3 118.667 281.792 119.389C282.104 119.315 282.45 119.415 282.675 119.643C281.462 120.422 281.178 122.898 282.971 123.044C284.76 123.187 285.111 120.89 283.301 120.473C283.335 120.358 284.039 118.811 284.022 118.796Z" fill="#EEEEEE"/>
<path d="M486.991 138.185C487.092 137.219 487.193 136.094 488.008 135.567C488.27 136.236 488.76 136.814 489.379 137.18C489.936 136.859 490.239 136.243 490.564 135.688C490.888 135.132 491.332 134.562 491.966 134.458C492.602 134.355 493.315 135.062 492.982 135.612C494.639 136.267 495.742 133.851 497.279 132.951C498.09 132.476 499.075 132.44 499.988 132.208C500.898 131.975 501.859 131.394 501.988 130.462C502.064 129.918 501.833 129.379 501.816 128.829C501.777 127.657 502.675 126.699 503.252 125.678C504.259 123.896 504.308 121.607 503.372 119.785C502.865 118.798 502.087 117.928 501.835 116.847C501.585 115.765 502.211 114.355 503.321 114.371C503.627 115.314 504.041 116.372 504.968 116.725C505.895 117.077 507.138 115.899 506.466 115.168C507.509 114.881 508.602 114.786 509.678 114.888C510.132 114.218 510.023 113.226 509.437 112.671C512.839 111.485 515.764 109.144 518.009 106.325C514.909 108.252 511.809 110.178 508.706 112.105C508.341 112.333 507.901 112.569 507.499 112.415C507.132 112.275 506.953 111.871 506.769 111.523C505.934 109.957 504.179 108.927 502.403 108.961C502.548 110.444 502.692 111.926 502.837 113.408C501.781 113.215 500.823 114.208 500.578 115.254C500.335 116.299 500.578 117.387 500.667 118.456C500.977 122.217 499.197 126.083 496.139 128.292C496.126 127.685 496.116 127.077 496.102 126.469C494.487 126.706 495.228 129.721 493.772 130.462C493.363 130.672 492.877 130.631 492.42 130.68C490.142 130.92 490.177 133.262 487.715 132.328C487.47 135.32 483.669 134.792 483.942 137.804C484.172 140.348 486.571 142.289 486.991 138.185Z" fill="#EEEEEE"/>
<path d="M506.974 90.8568C507.013 91.0728 507.054 91.2956 507.019 91.5128C506.956 91.9303 506.632 92.2628 506.517 92.6691C506.311 93.3744 506.769 94.1031 507.297 94.6125C507.827 95.1218 508.469 95.5483 508.808 96.201C509.375 97.2913 508.971 98.7846 509.783 99.7059C509.529 100.334 508.581 100.144 508.03 99.7496C507.48 99.3566 506.801 98.8417 506.207 99.1641C505.507 100.173 505.897 101.562 506.45 102.659C507 103.755 507.718 104.874 507.608 106.098C507.556 106.674 507.12 107.338 506.557 107.205C506.343 107.153 506.17 106.993 506.011 106.839C505.254 106.109 504.456 105.297 504.314 104.256C504.209 103.497 504.476 102.745 504.665 102.003C505.057 100.475 505.133 98.8674 504.886 97.3092C504.781 96.6409 504.617 95.9748 504.641 95.2987C504.687 94.0438 505.347 92.6501 504.617 91.6303C504.39 91.3113 504.02 90.9564 504.193 90.6038C504.505 89.9635 505.894 88.7601 506.384 88.2563C506.702 89.0713 506.811 89.9769 506.974 90.8568Z" fill="#EEEEEE"/>
<path d="M427.873 196.86C428.896 197.614 430.174 198.155 430.773 199.277C431.236 200.143 431.236 201.271 431.947 201.949C432.33 202.31 432.86 202.48 433.248 202.836C434.153 203.67 433.952 205.135 434.389 206.285C435.006 207.917 436.908 208.885 437.269 210.592C437.391 211.175 437.321 211.805 437.574 212.345C438.058 213.375 439.446 213.593 440.219 214.425C440.602 214.834 440.814 215.373 441.142 215.827C442.067 217.111 443.991 217.547 445.379 216.787C444.885 216.03 444.608 215.133 444.587 214.23C444.574 213.697 444.649 213.158 444.548 212.635C444.301 211.37 443.094 210.481 442.762 209.236C443.326 208.821 444.069 209.431 444.491 209.992C444.913 210.552 445.622 211.184 446.212 210.804C445.136 209.398 443.907 208.109 442.556 206.967C442.661 207.479 441.974 207.856 441.482 207.678C440.992 207.5 440.697 207.011 440.441 206.556C440.249 206.214 440.049 205.844 440.085 205.454C440.115 205.127 440.306 204.835 440.365 204.512C440.487 203.835 440 203.19 439.445 202.785C438.89 202.379 438.234 202.103 437.748 201.613C436.784 200.637 436.619 198.943 435.413 198.289C434.835 197.977 434.131 197.98 433.548 197.683C431.729 196.755 431.38 194.063 429.302 193.234C426.354 192.054 425.733 195.281 427.873 196.86Z" fill="#EEEEEE"/>
<path d="M446.058 217.222C445.625 217.826 445.193 218.429 444.76 219.032C444.666 219.163 444.569 219.306 444.569 219.467C444.574 219.916 445.214 219.982 445.661 219.92C447.067 219.726 448.507 219.798 449.887 220.129C452.215 220.688 454.43 221.983 456.822 221.833C457.182 221.811 457.547 221.755 457.906 221.809C458.296 221.867 458.652 222.049 459.028 222.161C459.895 222.419 460.875 222.274 461.632 221.776C460.987 221.155 459.981 221.201 459.089 221.135C458.2 221.068 457.139 220.661 457.032 219.774C457.002 219.533 457.052 219.283 456.991 219.049C456.862 218.55 456.289 218.301 455.775 218.271C455.259 218.241 454.738 218.356 454.231 218.259C453.376 218.095 452.722 217.304 451.876 217.186C451.018 217.068 450.639 217.72 449.947 217.753C448.518 217.82 447.391 215.36 446.058 217.222Z" fill="#EEEEEE"/>
<path d="M466.279 222.288C467.029 222.304 467.761 222.895 468.468 222.635C468.644 222.569 468.807 222.451 468.997 222.435C469.231 222.414 469.443 222.553 469.658 222.652C471.717 223.603 474.083 220.889 476.195 221.714C475.704 223.719 473.053 224.35 472.011 226.131C473.807 225.868 475.5 224.952 476.704 223.593C477.03 223.224 477.332 222.815 477.748 222.551C477.988 222.399 478.257 222.3 478.495 222.146C479.051 221.783 479.388 221.108 479.339 220.445C478.727 220.431 478.11 220.582 477.573 220.879C477.176 221.099 476.81 221.4 476.369 221.502C475.63 221.671 474.898 221.246 474.148 221.138C472.565 220.914 471.041 222.563 469.598 222.291C469.032 222.184 468.736 221.543 468.015 221.361C467.43 221.214 466.5 221.465 465.838 221.371C465.099 221.266 463.577 220.517 463.019 221.304C461.375 223.623 465.873 222.279 466.279 222.288Z" fill="#EEEEEE"/>
<path d="M465.878 224.486C466.195 224.131 466.805 224.354 467.117 224.712C467.432 225.07 467.629 225.546 468.033 225.797C468.439 226.049 469.01 225.995 469.363 225.672C469.571 225.481 469.702 225.173 469.594 224.913C469.487 224.648 469.188 224.526 468.918 224.431C468.656 224.338 468.393 224.247 468.131 224.154C467.67 223.991 467.189 223.828 466.709 223.894C466.225 223.96 465.747 224.335 465.74 224.822" fill="#EEEEEE"/>
<path d="M453.02 210.584C452.157 210.675 451.022 210.75 450.687 209.948C450.488 209.475 450.711 208.941 450.724 208.429C450.746 207.588 450.204 206.855 449.816 206.108C449.137 204.802 448.894 203.275 449.13 201.823C449.192 201.455 449.29 201.074 449.545 200.804C449.709 200.632 449.924 200.519 450.133 200.408C450.938 199.985 451.744 199.562 452.549 199.139C453.604 198.584 454.663 198.029 455.653 197.367C458.126 195.713 460.149 193.395 461.449 190.722C461.902 190.242 462.737 190.694 463.037 191.279C463.339 191.863 463.415 192.582 463.878 193.05C464.592 193.766 466.145 193.925 466.028 194.927C465.98 195.324 465.645 195.61 465.37 195.9C464.406 196.915 464.005 198.436 464.349 199.793C464.69 201.151 465.764 202.301 467.092 202.738C465.874 202.854 464.305 203.331 464.301 204.556C464.298 205.326 464.982 206.14 464.56 206.784C464.118 207.456 462.943 207.141 462.42 207.753C462.002 208.243 462.262 208.978 462.352 209.618C462.572 211.214 461.335 212.87 459.741 213.11C459.069 213.212 458.285 213.03 457.945 212.441C457.769 212.132 457.74 211.759 457.594 211.434C457.011 210.125 456.133 210.913 455.272 210.899C454.673 210.889 453.827 210.499 453.02 210.584Z" fill="#EEEEEE"/>
<path d="M476.775 201.208C476.917 201.159 477.059 201.112 477.204 201.064C476.9 200.863 476.486 200.925 476.189 201.137C475.894 201.349 475.682 201.656 475.439 201.928C474.598 202.869 473.299 203.38 472.042 203.268C471.253 203.198 470.466 202.897 469.686 203.048C468.73 203.233 468.009 204.084 467.724 205.016C467.582 205.485 467.718 206.199 468.208 206.16C468.479 205.323 469.24 204.707 470.08 204.44C470.919 204.174 471.827 204.218 472.695 204.373C473.374 204.495 474.059 204.687 474.743 204.597C475.429 204.508 476.127 204.039 476.211 203.352C476.27 202.855 476.005 202.321 476.217 201.868C476.401 201.474 476.926 201.124 476.72 200.741C476.495 200.785 476.998 201.164 476.775 201.208Z" fill="#EEEEEE"/>
<path d="M466.252 212.271C466.567 213.687 467.229 215.167 466.716 216.523C467.284 216.781 467.968 216.299 468.161 215.705C468.353 215.109 468.202 214.466 468.053 213.858C467.907 213.25 467.767 212.6 467.977 212.012C468.025 211.875 468.11 211.732 468.253 211.702C468.321 211.686 468.395 211.702 468.463 211.722C469.234 211.943 469.762 212.677 470.005 213.442C470.247 214.206 470.264 215.021 470.374 215.817C470.442 216.312 470.58 216.854 470.995 217.132C471.679 217.591 472.656 216.977 472.913 216.194C473.17 215.411 472.963 214.563 472.851 213.746C472.698 212.612 472.615 211.244 471.612 210.694C471.199 210.468 470.621 210.368 470.488 209.915C470.328 209.375 470.972 208.956 471.511 208.796C472.005 208.651 472.509 208.546 473.018 208.484C473.626 208.409 474.415 208.236 474.477 207.627C474.54 206.994 473.74 206.678 473.112 206.572C472.358 206.444 471.589 206.315 470.83 206.413C470.068 206.511 469.306 206.872 468.903 207.524C468.818 207.662 468.74 207.822 468.591 207.882C468.379 207.969 468.143 207.812 468.018 207.622C467.896 207.431 467.832 207.203 467.69 207.026C466.051 204.998 466.129 211.72 466.252 212.271Z" fill="#EEEEEE"/>
<path d="M479.91 210.853C479.075 210.656 478.19 210.676 477.366 210.911C477.217 210.953 477.042 211.036 477.033 211.191C477.027 211.355 477.212 211.454 477.373 211.497C478.166 211.713 479.038 211.623 479.772 211.248C479.66 210.921 479.23 210.752 478.925 210.916" fill="#EEEEEE"/>
<path d="M483.491 210.413C483.073 210.199 482.527 210.26 482.167 210.565C481.807 210.868 481.654 211.395 481.796 211.844C482.629 212.055 483.475 211.071 484.271 211.396C484.794 211.61 485.058 212.329 485.622 212.359C486.103 212.384 486.444 211.71 486.136 211.338C485.878 211.026 485.386 211.028 485.073 210.769C484.505 210.299 484.857 209.386 485.246 208.758C484.61 208.62 484.135 209.365 484.055 210.008C484.018 210.291 484.013 210.589 483.88 210.843C483.749 211.097 483.435 211.288 483.176 211.168" fill="#EEEEEE"/>
<path d="M479.939 206.489C479.93 206.72 479.926 206.965 480.031 207.17C480.136 207.378 480.392 207.526 480.604 207.432C480.767 207.362 480.847 207.185 480.912 207.024C481.128 206.504 481.345 205.906 481.102 205.397C480.993 205.169 480.8 204.984 480.715 204.745C480.466 204.033 481.33 203.645 481.885 203.7C481.754 202.798 480.986 203.437 480.984 202.458C480.984 202.309 482.676 201.662 481.268 201.426C479.432 201.115 479.985 205.294 479.939 206.489Z" fill="#EEEEEE"/>
<path d="M487.555 205.369C486.707 205.434 485.778 205.41 485.111 204.88C484.48 205.403 484.895 206.492 485.587 206.927C486.28 207.362 487.145 207.439 487.861 207.83C488.581 208.221 489.12 209.213 488.598 209.842C489.173 209.991 489.747 210.141 490.323 210.29C490.456 210.831 489.844 211.22 489.38 211.527C488.914 211.834 488.538 212.591 489.022 212.867C489.245 213.347 489.962 213.269 490.428 213.016C490.891 212.762 491.389 212.397 491.898 212.551C492.228 212.652 492.448 212.949 492.691 213.194C493.708 214.231 495.26 214.479 496.564 215.117C497.867 215.755 499.045 217.302 498.339 218.571C498.072 219.051 497.591 219.366 497.228 219.78C496.866 220.193 496.625 220.827 496.937 221.28C498.085 221.357 499.255 220.992 500.154 220.274C501.076 221.263 502.165 222.186 503.488 222.473C504.809 222.759 506.39 222.217 506.908 220.966C507.009 220.719 507.078 220.438 507.287 220.266C507.575 220.028 508.004 220.108 508.367 220.209C509.477 220.522 510.564 220.926 511.611 221.414C511.81 221.507 512.024 221.618 512.118 221.817C512.253 222.105 512.088 222.437 512.042 222.753C511.878 223.925 513.325 224.6 514.491 224.806C516.072 225.086 517.675 225.23 519.279 225.239C519.334 224.434 518.463 223.884 517.676 223.706C516.889 223.53 516.006 223.505 515.409 222.964C514.703 222.328 514.638 221.175 513.898 220.58C513.343 220.133 512.363 219.838 512.514 219.141C512.677 218.395 513.985 218.492 514.237 217.772C514.395 217.327 514.005 216.854 513.563 216.688C513.121 216.522 512.634 216.551 512.168 216.464C511.01 216.244 510.056 215.204 509.936 214.03C509.893 213.586 509.952 213.117 509.773 212.708C509.5 212.09 508.784 211.82 508.142 211.613C504.717 210.51 501.294 209.406 497.87 208.302C497.378 208.143 496.844 207.984 496.356 208.155C495.042 208.615 495.132 210.977 493.764 211.227C493.053 211.356 492.424 210.788 491.925 210.265C491.434 209.754 490.734 209.017 490.67 208.268C490.626 207.753 491.151 207.305 491.103 206.85C490.909 205.106 488.904 205.266 487.555 205.369Z" fill="#EEEEEE"/>
<path d="M514.176 216.166C514.272 216.316 514.458 216.382 514.63 216.429C516.055 216.823 517.628 216.661 518.945 215.985C519.369 215.768 519.784 215.493 520.257 215.443C520.567 215.41 520.882 215.478 521.193 215.444C521.503 215.41 521.837 215.234 521.897 214.927C521.954 214.626 521.733 214.279 521.91 214.029C522.098 213.768 522.553 213.869 522.761 213.624C522.99 213.351 522.715 212.951 522.457 212.706C521.4 211.708 520.374 210.632 519.244 209.727C519.143 211.152 520.184 212.795 519.067 214.017C518.417 214.729 513.839 215.641 514.176 216.166Z" fill="#EEEEEE"/>
<path d="M528.202 220.615C528.722 220.787 529.271 220.864 529.778 221.068C530.287 221.272 530.771 221.639 530.923 222.165C530.921 222.141 530.916 222.117 530.914 222.093C530.735 220.692 529.309 219.816 528.045 219.156C527.879 219.069 527.703 218.973 527.616 218.808C527.561 218.705 525.871 219.844 528.202 220.615Z" fill="#EEEEEE"/>
<path d="M543.061 247.734C542.934 247.153 542.731 246.572 542.346 246.119C541.958 245.665 541.364 245.358 540.774 245.438C540.269 246.549 541.148 247.817 542.153 248.505C542.864 248.99 543.669 249.299 544.468 249.574C543.461 249.743 543.231 248.503 543.061 247.734Z" fill="#EEEEEE"/>
<path d="M546.377 237.598C546.845 238.735 547.184 239.927 547.38 241.14C547.944 240.819 548.102 239.961 547.69 239.461C548.092 239.819 548.096 240.43 548.19 240.962C548.431 242.355 549.537 243.558 550.904 243.918C551.114 243.509 550.939 242.996 550.646 242.642C550.351 242.289 549.954 242.039 549.619 241.722C548.991 241.125 548.607 240.277 548.573 239.412C548.543 238.632 548.685 237.642 548 237.265C547.883 237.603 547.764 237.94 547.646 238.278C547.449 238.256 547.321 238.064 547.245 237.881C546.772 236.75 547.251 235.129 546.182 234.308C546.019 234.808 545.696 235.33 545.146 235.397C545.137 236.209 546.06 236.825 546.377 237.598Z" fill="#EEEEEE"/>
<path d="M532.677 220.978C533.459 221.31 534.466 221.186 535.058 221.797C535.64 222.4 535.515 223.419 536.012 224.095C536.246 224.414 536.595 224.627 536.851 224.929C537.105 225.232 537.243 225.709 536.987 226.009C536.665 226.385 536.001 226.152 535.755 225.724C535.51 225.297 535.533 224.774 535.471 224.284C535.412 223.793 535.202 223.249 534.734 223.091C534.284 222.939 533.689 223.176 533.374 222.82C533.269 222.702 533.225 222.541 533.171 222.393C532.716 221.188 531.175 220.593 530.908 219.373C531.521 219.845 531.894 220.644 532.677 220.978Z" fill="#EEEEEE"/>
<path d="M486.857 218.963C486.07 219.632 485.36 220.387 484.738 221.212C485.211 221.444 485.83 221.321 486.177 220.928C486.525 220.534 486.573 219.905 486.286 219.465" fill="#EEEEEE"/>
<path d="M492.064 215.685C492.525 216.034 492.943 216.526 492.958 217.106C492.976 217.684 492.403 218.275 491.854 218.094C491.962 217.264 492.068 216.435 492.176 215.605" fill="#EEEEEE"/>
<path d="M487.076 228.27C486.67 227.417 485.468 227.062 484.662 227.557C485.367 228.144 485.433 229.342 484.8 230.003C484.477 230.341 484.029 230.529 483.658 230.815C482.434 231.76 482.381 233.858 483.555 234.864C482.987 235.158 482.418 235.453 481.853 235.748C481.453 234.255 480.311 232.98 478.873 232.419C476.912 233.648 475.451 235.652 474.881 237.894C474.654 237.934 474.426 237.973 474.199 238.013C474.094 238.676 473.989 239.339 473.885 240.002C473.382 239.328 473.176 238.438 473.338 237.612C472.155 237.846 471.487 239.106 471.163 240.268C470.837 241.43 470.643 242.717 469.787 243.567C469.159 244.191 468.278 244.471 467.432 244.73C466.136 245.128 464.84 245.526 463.542 245.924C462.471 246.252 461.308 246.651 460.73 247.61C460.262 248.386 459.96 249.628 459.062 249.519C458.682 249.472 458.385 249.16 458.014 249.067C457.249 248.875 456.565 249.717 456.532 250.506C456.5 251.294 456.871 252.034 457.076 252.796C457.28 253.558 457.262 254.497 456.643 254.985C457.363 255.029 458.104 255.311 458.53 255.893C458.955 256.477 458.955 257.388 458.406 257.857C457.86 258.326 456.819 258.058 456.695 257.347C458.273 261.648 459.388 266.118 460.016 270.656C460.272 272.511 460.42 274.509 459.522 276.152C461.085 277.328 463.366 277.452 465.048 276.451C465.99 275.889 466.736 275.022 467.722 274.541C469.438 273.702 471.523 274.188 473.349 273.634C475.026 273.127 476.389 271.777 478.114 271.474C479.415 271.244 480.862 271.621 482.004 270.953C482.541 270.637 482.935 270.122 483.453 269.775C484.033 269.387 484.739 269.229 485.436 269.19C488.202 269.032 491.035 270.936 491.659 273.635C491.815 274.31 491.843 275.02 492.109 275.66C492.373 276.299 492.976 276.877 493.668 276.816C493.841 274.701 495.85 272.906 497.971 272.973C498.072 273.653 497.584 274.278 497.066 274.73C496.547 275.182 495.944 275.594 495.675 276.227C495.407 276.86 495.708 277.789 496.395 277.839C496.743 277.182 497.221 276.595 497.797 276.123C498.877 277.083 498.368 279.199 496.971 279.564C498.311 279.167 500.211 279.033 500.659 280.357C500.786 280.731 500.746 281.14 500.783 281.534C500.98 283.58 503.121 284.776 504.997 285.62C505.375 285.791 505.786 285.967 506.197 285.897C506.906 285.779 507.284 285.028 507.697 284.439C508.108 283.85 508.954 283.336 509.494 283.81C509.962 284.219 509.767 285.028 510.139 285.528C510.639 286.204 511.761 285.843 512.309 285.205C512.858 284.566 513.183 283.711 513.896 283.262C515.222 282.426 517.624 283.079 518.016 281.562C518.23 280.737 517.535 279.977 517.31 279.156C516.956 277.872 517.786 276.561 518.737 275.631C519.691 274.7 520.838 273.897 521.402 272.692C522.347 270.677 521.356 268.279 521.737 266.086C522.118 263.885 523.859 261.696 522.948 259.657C522.59 258.858 521.861 258.256 521.56 257.433C521.271 256.638 521.392 255.673 520.849 255.022C520.506 254.609 519.97 254.421 519.535 254.108C518.092 253.066 518.053 250.987 517.5 249.294C516.497 246.211 513.602 244.205 511.6 241.653C511.231 241.182 510.885 240.675 510.726 240.097C510.543 239.425 510.625 238.713 510.571 238.019C510.437 236.329 509.419 234.734 507.942 233.901C507.619 233.719 507.266 233.562 507.039 233.27C506.718 232.853 506.735 232.28 506.72 231.754C506.656 229.776 505.871 227.828 504.545 226.359C503.668 230.701 502.789 235.043 501.912 239.385C501.402 239.772 500.783 240.013 500.145 240.07C499.891 238.961 499.64 237.851 499.386 236.742C498.134 236.807 496.819 236.859 495.696 236.306C494.572 235.751 493.748 234.372 494.25 233.225C494.526 232.598 495.147 231.901 494.738 231.352C495.86 231.773 496.837 229.954 496.018 229.083C494.726 227.712 493.313 229.7 491.982 229.628C490.331 229.537 488.851 227.225 487.076 228.27Z" fill="#EEEEEE"/>
<path d="M510.864 295.976C510.855 296.297 510.846 296.689 511.122 296.854C511.233 296.921 511.367 296.931 511.495 296.94C512.438 297.004 513.629 296.878 513.95 295.989C514.21 295.275 513.719 294.449 513.983 293.737C514.07 293.503 514.232 293.305 514.37 293.096C514.714 292.574 514.914 291.919 514.749 291.317C514.581 290.715 513.964 290.221 513.349 290.34C513.015 290.405 512.728 290.63 512.398 290.717C511.335 290.997 508.287 288.722 508.549 291.272C508.632 292.071 509.735 292.698 510.141 293.35C510.63 294.13 510.893 295.055 510.864 295.976Z" fill="#EEEEEE"/>
<path d="M546.033 300.44C545.326 300.674 544.548 300.776 543.957 301.23C543.365 301.682 543.1 302.679 543.677 303.149C544.121 303.51 544.783 303.362 545.328 303.538C546.551 303.93 546.659 305.59 546.535 306.867C547.393 307.233 548.322 306.484 548.796 305.683C549.269 304.881 549.595 303.917 550.386 303.427C550.902 303.108 551.577 303.021 551.96 302.549C552.497 301.886 552.141 300.891 552.341 300.061C552.841 297.978 555.841 297.796 556.644 295.765C557.201 294.352 558.218 291.587 556.547 291.295C552.375 290.564 549.647 299.245 546.033 300.44Z" fill="#EEEEEE"/>
<path d="M559.163 292.747C559.16 292.857 559.16 292.975 559.22 293.068C559.369 293.3 559.734 293.207 559.947 293.032C561.17 292.029 560.431 289.889 561.369 288.615C561.679 288.194 562.143 287.917 562.552 287.593C563.866 286.548 564.675 284.896 564.695 283.218C564.089 283.547 563.466 283.882 562.784 283.978C562.102 284.073 561.337 283.881 560.928 283.325C560.428 282.643 560.595 281.64 560.119 280.938C559.572 280.129 558.389 280.014 557.731 279.293C557.127 278.632 557.114 277.648 556.976 276.763C556.841 275.879 556.384 274.872 555.496 274.75C553.743 276.762 557.189 279.283 557.637 281.002C558.066 282.648 557.217 283.109 556.557 284.492C555.87 285.93 555.414 287.066 556.777 288.184C557.654 288.902 558.378 287.807 559.142 289.138C559.582 289.903 559.17 291.895 559.163 292.747Z" fill="#EEEEEE"/>
<path d="M467.383 172.223C467.287 172.504 467.188 172.793 467.193 173.089C467.21 174.108 468.386 174.8 468.474 175.815C468.509 176.219 468.36 176.619 468.362 177.025C468.365 177.432 468.612 177.9 469.016 177.904C469.368 177.907 469.611 177.576 469.862 177.331C470.112 177.086 470.578 176.929 470.774 177.219C470.859 177.348 470.852 177.516 470.837 177.67C470.728 178.757 470.433 179.824 469.965 180.811C470.551 181.044 471.236 180.664 471.562 180.125C471.885 179.585 471.94 178.931 471.984 178.303C472.007 177.99 472.027 177.663 471.901 177.376C471.713 176.942 471.243 176.711 470.935 176.352C470.362 175.686 470.423 174.671 470.742 173.852C471.064 173.033 471.602 172.314 471.928 171.496C472.011 171.285 472.081 171.055 472.048 170.829C472.013 170.595 471.873 170.393 471.768 170.179C471.511 169.65 471.483 169.045 471.371 168.467C470.392 163.425 467.69 171.339 467.383 172.223Z" fill="#EEEEEE"/>
<path d="M477.028 180.078C477.138 181.013 476.744 181.991 476.021 182.592C475.857 182.728 475.673 182.851 475.573 183.037C475.227 183.674 476.032 184.283 476.61 184.719C478.427 186.094 478.647 189.12 477.05 190.743C476.899 190.895 476.733 191.041 476.639 191.233C476.547 191.422 476.534 191.639 476.531 191.85C476.52 192.804 476.691 193.76 477.032 194.651C476.085 195.124 474.905 194.344 474.543 193.349C474.182 192.354 474.39 191.257 474.563 190.214C474.629 189.826 474.68 189.395 474.458 189.069C474.104 188.542 473.238 188.651 472.792 189.104C472.349 189.557 472.198 190.213 472.019 190.825C471.842 191.435 471.579 192.084 471.021 192.391C470.599 190.268 472.34 187.977 474.497 187.815C474.97 187.78 475.47 187.827 475.892 187.612C476.314 187.398 476.566 186.768 476.216 186.448C475.805 186.461 475.64 185.912 475.678 185.503C475.716 185.093 475.784 184.593 475.451 184.35C475.11 184.101 474.612 184.359 474.387 184.715C474.162 185.071 474.089 185.507 473.868 185.865C473.536 186.405 472.858 186.707 472.233 186.593C472.2 185.654 472.758 184.718 473.6 184.302C472.852 184.037 472.08 183.61 471.787 182.871C471.496 182.132 472.008 181.089 472.799 181.153C473.081 181.878 473.366 182.605 473.648 183.331C474.262 183.715 475.128 183.329 475.485 182.699C475.843 182.068 475.815 181.295 475.714 180.577C476.515 180.987 477.432 179.86 477.104 179.023C476.916 178.542 476.473 178.211 476.029 178.147C476.531 178.663 476.944 179.354 477.028 180.078Z" fill="#EEEEEE"/>
<path d="M357.006 41.1813C357.552 40.7929 357.137 39.8503 356.503 39.6376C355.87 39.4249 355.178 39.6331 354.51 39.6533C353.841 39.6734 353.034 39.3566 352.961 38.6917C352.939 38.4947 352.989 38.2954 353.067 38.1141C353.532 37.0047 354.851 36.5625 355.712 35.7207C357.05 34.411 357.166 32.2561 358.342 30.7963C359.967 28.778 363.039 28.6907 365.121 27.1459C365.774 26.6612 366.321 26.0376 367.001 25.5876C368.761 24.4223 371.046 24.616 373.156 24.56C375.922 24.4861 378.672 23.9006 381.228 22.8428C380.686 25.4052 377.618 26.3645 375.08 27.0048C373.371 27.4369 371.681 27.9351 370.01 28.4993C367.888 29.2168 365.762 30.062 364.024 31.4781C362.285 32.8942 360.968 34.9696 360.936 37.2107C360.918 38.3872 362.327 40.9294 361.546 41.8407C360.626 42.9131 358.009 41.6302 357.006 41.1813Z" fill="#EEEEEE"/>
<path d="M421.665 11.2624C421.025 11.4672 420.385 11.6721 419.745 11.877C420.335 12.7859 421.555 13.2303 422.592 12.9124C423.677 12.58 424.734 11.5176 425.753 12.018C426.015 12.5072 425.416 12.993 424.929 13.2595C424.442 13.5259 423.924 14.1584 424.319 14.5468C424.415 14.6408 424.546 14.689 424.673 14.7304C426.907 15.4468 429.454 14.8379 431.591 15.805C432.265 16.1095 432.916 16.5741 433.655 16.5416C434.392 16.5092 435.082 15.5756 434.573 15.0416C434.241 14.6923 433.563 14.6867 433.431 14.2244C433.186 13.3748 435.189 13.0322 434.798 12.2397C433.351 12.2844 431.903 12.3292 430.454 12.374C429.962 12.3897 429.36 12.3415 429.146 11.8982C429.026 11.6464 429.072 11.3284 428.905 11.1045C428.702 10.8314 428.298 10.8381 427.958 10.8728C427.193 10.9501 426.428 11.0273 425.662 11.1057C427.337 10.9366 429.532 10.0444 431.211 9.63809C428.983 7.11489 422.537 7.41938 421.665 11.2624Z" fill="#EEEEEE"/>
<path d="M441.9 14.9404C441.863 13.999 440.562 13.5859 439.712 13.99C438.861 14.3941 438.347 15.2583 437.771 16.0028C437.078 16.8949 436.238 17.6606 435.405 18.4218C437.598 18.1386 439.791 17.8554 441.986 17.5733C442.833 17.4636 443.849 17.2207 444.103 16.4046C443.252 15.8248 442.258 15.4576 441.234 15.3456" fill="#EEEEEE"/>
<path d="M499.427 28.245C499.707 28.0771 499.963 27.8565 500.276 27.7659C501.524 27.4032 502.595 29.248 503.861 28.948C504.397 28.8215 504.775 28.3357 505.288 28.1398C506.491 27.6819 507.833 28.9401 508.975 28.1644C510.461 27.1535 509.821 26.2871 508.651 25.8304C507.575 25.4106 505.912 25.8528 504.703 25.5046C503.806 25.2471 503.03 24.7512 502.18 24.3885C500.184 23.5355 497.022 22.1071 495.665 24.6818C494.444 26.9957 497.151 29.6107 499.427 28.245Z" fill="#EEEEEE"/>
<path d="M517.143 27.6158C516.256 26.8904 515.228 26.3385 514.133 26.0038C513.978 25.9568 513.816 25.912 513.654 25.9198C513.071 25.9456 512.702 26.671 512.888 27.2251C513.076 27.7792 513.647 28.1262 514.219 28.2359C514.795 28.3468 515.385 28.2651 515.969 28.2259C517.194 28.1419 518.433 28.2404 519.63 28.518C519.855 27.7501 519.1 26.9788 518.306 26.8725C517.515 26.7661 516.741 27.1154 516.017 27.4568" fill="#EEEEEE"/>
<path d="M505.87 32.073C505.19 31.7472 504.462 31.5222 503.718 31.4058C503.322 31.3442 502.739 31.5054 502.837 31.8939C502.879 32.0607 503.041 32.1626 503.191 32.2443C504.212 32.7984 505.299 33.2338 506.42 33.5383C506.939 33.6783 507.657 33.6928 507.833 33.1857C507.955 32.8297 507.696 32.4558 507.405 32.2174C506.696 31.6364 505.697 31.4327 504.817 31.689" fill="#EEEEEE"/>
<path d="M287.824 16.0142C288.778 16.575 289.937 16.6814 290.92 17.1851C292.075 17.7751 292.923 18.9247 293.148 20.2009C293.288 20.9823 293.219 21.8409 293.653 22.5047C294.283 23.4685 295.796 23.5368 296.714 22.8427C297.631 22.1487 298.014 20.9252 298.008 19.7733C298.003 18.8676 297.845 17.8176 298.496 17.1874C298.773 16.9165 299.154 16.7833 299.521 16.6601C300.243 16.4183 301.001 16.1844 301.749 16.312C302.497 16.4407 303.22 17.053 303.205 17.812C303.187 18.7277 302.16 19.5774 302.567 20.399C304.014 20.3789 305.464 20.3587 306.914 20.3386C307.414 19.8315 307.06 18.918 306.471 18.5206C305.878 18.1232 305.135 18.0337 304.484 17.7449C303.832 17.456 303.22 16.7978 303.401 16.1082C303.674 15.0694 305.151 15.1993 306.225 15.2384C309.088 15.3426 311.728 12.6436 311.565 9.78457C309.023 9.39613 307.765 12.1768 305.658 12.9033C303.915 13.5033 302.96 12.4891 301.364 12.6391C299.662 12.7992 299.258 13.8851 297.944 14.1996C295.902 14.6888 294.432 13.6768 292.319 13.3959C290.671 13.1753 283.504 13.4731 287.824 16.0142Z" fill="#EEEEEE"/>
<path d="M262.199 3.87384C260.584 6.67577 257.843 8.80829 254.73 9.68816C253.263 10.1035 251.632 10.296 250.523 11.3438C249.837 11.9931 249.45 12.8875 249.08 13.7573C248.355 15.4667 247.615 17.2298 247.576 19.0869C247.537 20.9441 248.361 22.9445 250.031 23.7549C247.702 24.9091 247.473 28.7622 249.65 30.1827C248.76 32.4014 245.039 31.1622 243.282 32.7821C241.917 34.0414 242.444 36.2982 243.268 37.9628C244.09 39.6274 245.133 41.4901 244.471 43.2252C241.972 42.2513 239.472 41.2763 236.974 40.3024C236.031 42.3398 238.742 44.8652 240.708 43.7782C238.817 47.1802 233.773 46.5096 230.231 48.1194C226.447 49.8377 224.414 54.2561 220.59 55.8815C218.707 56.6808 216.567 56.7166 214.693 57.5316C212.816 58.3476 211.197 60.5115 212.08 62.3563C212.254 62.7213 212.523 63.0806 212.476 63.4814C212.426 63.9034 212.047 64.1956 211.724 64.4709C208.652 67.0893 208.62 71.7383 208.834 75.7682C207.738 76.5877 206.193 75.4738 205.589 74.2469C204.988 73.02 204.676 71.5144 203.521 70.7823C202.371 70.0535 200.827 70.4017 199.568 69.8834C198.418 69.4099 197.683 68.2983 197.019 67.2482C195.773 65.2803 194.528 63.3112 193.282 61.3432C192.232 59.6854 191.16 57.9648 190.867 56.0259C190.573 54.0871 191.273 51.8538 193.016 50.9504C194.245 50.3124 196.245 49.3474 195.353 48.2873C195.154 48.05 194.848 47.9369 194.557 47.8328C192.298 47.0302 190.04 46.2275 187.784 45.4249C188.66 42.7036 191.816 40.9438 194.592 41.6256C195.615 39.9923 193.252 38.199 191.323 38.2303C189.397 38.2628 187.247 38.9624 185.685 37.8352C187.139 35.8068 187.062 32.9343 185.891 30.7301C184.72 28.526 182.606 26.9397 180.322 25.9322C179.305 25.4834 178.22 25.133 177.11 25.1162C175.35 25.0904 173.664 25.8975 171.907 25.9087C169.416 25.9244 167.145 24.3102 165.717 22.2706C164.29 20.231 163.559 17.7973 162.851 15.4107C164.855 16.5189 167.501 16.5816 169.363 15.2495C171.228 13.9185 171.996 11.1154 170.778 9.17435C173.313 8.60679 175.848 8.03924 178.383 7.47169C179.023 7.3284 179.679 7.1784 180.232 6.82802C180.943 6.38024 181.42 5.6459 182.062 5.10745C183.296 4.07533 184.994 3.85592 186.593 3.67793C190.871 3.20218 195.151 2.72642 199.427 2.25178C200.249 2.15998 201.095 2.07043 201.893 2.28312C203.996 2.84284 205.903 5.38955 207.79 4.30706C207.866 3.47868 207.618 2.62567 207.111 1.96632C209.515 0.860323 212.297 1.19951 214.942 1.23869C220.277 1.31705 225.557 0.0823177 230.892 0.00395742C236.126 -0.0732834 241.373 0.981222 246.172 3.07456C244.567 4.18392 242.733 4.96192 240.82 5.34589C242.071 5.26753 243.337 5.48358 244.489 5.96941C243.571 5.58209 239.414 8.86202 238.751 9.45308C241.014 11.2106 245.982 7.57244 248.319 6.4586C252.743 4.34959 257.26 3.14397 262.199 3.87384Z" fill="#EEEEEE"/>
<path d="M254.176 60.9001C252.979 61.3904 251.859 62.0699 250.871 62.905C249.955 63.6785 248.932 64.6569 247.755 64.4207C246.562 64.1823 246 62.8524 245.475 61.7531C244.952 60.6538 243.89 59.4695 242.738 59.8646C243.366 59.1113 243.991 58.3568 244.616 57.6034C243.125 57.3862 241.634 57.169 240.141 56.9507C239.778 56.8981 239.38 56.8265 239.139 56.5466C238.582 55.8929 239.414 54.9246 240.241 54.6805C242.097 54.132 244.141 54.966 245.536 56.3093C246.119 56.8713 246.863 57.5821 247.609 57.2664C248.102 57.0571 248.313 56.4873 248.643 56.0653C249.434 55.0533 250.912 54.9201 252.189 55.069C254.345 55.3209 258.65 53.7402 259.491 56.3205C260.436 59.2154 255.91 60.1904 254.176 60.9001Z" fill="#EEEEEE"/>
<path d="M68.4109 41.0343C62.7701 43.3818 56.9188 45.7203 50.8101 45.6453C48.1604 45.6128 45.5409 45.1247 42.9371 44.6378C37.2762 43.5799 31.557 42.5041 26.2901 40.1746C24.8818 39.5522 23.4691 38.8313 21.9321 38.7372C20.216 38.632 18.5581 39.3261 17.0167 40.0895C12.3486 42.4056 8.07353 45.5109 4.42643 49.2342C8.22018 49.8308 11.7464 51.9768 14.02 55.072C12.2266 55.9418 9.80977 55.1425 8.89184 53.3738C6.48506 52.6742 3.67976 54.5783 3.44133 57.0735C3.20289 59.5688 5.59735 61.9688 8.09145 61.7382C8.97692 60.5639 10.346 59.7658 11.8046 59.5743C12.4908 60.7318 13.1793 61.8882 13.8655 63.0457C12.6677 64.492 10.5587 64.642 8.72505 65.0573C6.89253 65.4726 4.82942 66.7633 5.03988 68.6306C5.39138 71.7415 11.3658 72.0045 11.1038 75.1233C11.1934 74.0643 23.5418 73.2393 17.5674 80.3286C16.6327 81.4391 15.2245 82.2428 13.7782 82.1152C14.1789 83.2526 14.0894 84.6675 13.1949 85.4758C12.3005 86.284 10.5441 85.9929 10.2631 84.8209C9.30715 86.8661 6.66865 87.3508 4.42195 87.5725C4.15552 88.4758 3.88798 89.3803 3.62267 90.2837C3.44132 89.1565 1.95136 88.4893 0.978575 89.0882C0.00578885 89.686 -0.0860044 91.2912 0.799466 92.0133C1.62113 92.6849 2.82004 92.5226 3.86223 92.3245C4.25179 92.2506 4.69621 92.1353 4.86524 91.7771C4.96935 91.5565 4.93577 91.3013 4.94472 91.0573C4.9839 89.8707 6.02274 88.9303 7.13209 88.5083C8.24257 88.0874 9.45491 88.0404 10.6113 87.7706C12.5233 87.3251 14.2472 86.2773 15.7752 85.0459C17.4398 83.7059 18.9365 82.1197 20.8261 81.1178C21.5481 80.7339 22.3194 80.4417 23.0168 80.0096C28.1349 76.836 24.8706 71.3385 32.4469 70.3937C32.5544 71.4437 31.8324 72.5206 30.8204 72.8206C33.2473 74.6139 35.9015 68.9675 38.746 69.9784C39.5464 70.2627 40.0647 71.0261 40.7531 71.5243C42.0304 72.4478 43.7375 72.3829 45.307 72.5161C51.5601 73.0478 57.2647 77.6845 59.0614 83.697C61.7962 82.8899 64.0754 85.8116 65.4343 88.3169C67.6822 92.4532 69.93 96.5906 72.1767 100.727C73.604 103.354 75.0458 106.014 75.7868 108.91C76.847 113.052 76.4205 117.457 77.4111 121.616C78.4018 125.774 81.6023 130.006 85.8774 129.894C86.5703 136.41 88.479 142.795 91.4746 148.623C90.0137 150.105 92.3645 152.303 94.3627 152.883C96.3609 153.464 98.9938 154.944 98.1206 156.835C100.477 154.211 97.4758 150.256 94.6045 148.207C91.7332 146.157 88.367 142.763 90.1615 139.727C91.141 138.739 92.8548 139.891 93.316 141.203C93.7772 142.515 93.7358 144.069 94.6627 145.106C95.4743 146.015 96.7874 146.243 97.8352 146.864C101.631 149.119 100.835 155.524 104.51 157.972C105.853 158.866 107.617 159.074 108.78 160.191C109.615 160.994 110.005 162.14 110.551 163.161C112.482 166.77 116.362 168.812 120.022 170.644C121.089 171.179 122.156 171.713 123.223 172.247C129.334 175.307 135.445 178.366 141.556 181.426C142.143 181.72 142.822 182.02 143.432 181.778C145.944 180.784 140.812 176.318 142.946 174.661C139.946 173.213 136.945 171.767 133.942 170.32C135.816 168.647 136.065 165.461 134.472 163.519C135.578 163.257 136.497 162.32 136.733 161.209C135.412 159.834 132.992 160.971 131.967 162.578C130.939 164.185 130.526 166.206 129.142 167.518C126.011 170.488 120.469 167.336 119.258 163.195C118.047 159.052 119.432 154.659 119.894 150.368C120.079 148.634 120.228 146.658 121.598 145.584C124.738 143.125 129.361 148.309 133.003 146.689C134.398 146.067 135.219 144.584 136.532 143.806C138.796 142.467 141.877 143.709 143.445 145.821C145.015 147.933 145.455 150.65 145.848 153.252C146.589 154.467 148.648 153.124 148.532 151.705C148.416 150.285 147.247 149.223 146.477 148.026C144.507 144.971 145.399 140.426 148.379 138.344C151.028 136.494 155.391 135.768 155.563 132.542C155.675 130.456 153.691 128.747 153.611 126.66C153.539 124.823 154.93 123.294 156.226 121.992C159.892 118.31 163.559 114.628 167.225 110.947C168.087 110.083 169.127 109.152 170.341 109.287C171.552 109.424 172.228 111.428 171.075 111.825C175.397 111.992 181.191 110.948 181.537 106.636C179.792 108.168 177.72 109.325 175.5 110.009C175.269 107.956 175.872 105.82 177.142 104.192C175.533 101.416 171.679 100.653 168.616 101.608C165.553 102.563 163.099 104.821 160.754 107.01C164.276 102.857 168.987 99.3769 174.395 98.7444C176.433 98.506 178.617 98.6481 180.39 97.6149C182.856 96.1775 185.038 92.5562 187.522 93.9599C185.707 97.1436 183.895 100.327 182.08 103.511C184.037 103.365 185.994 103.22 187.948 103.074C188.744 104.431 189.132 106.022 189.05 107.592C191.444 107.426 194.737 105.847 193.668 103.699C193.126 102.608 191.706 102.333 190.764 101.561C188.173 99.4384 190.191 95.0771 188.892 91.9897C188.243 90.4461 186.826 89.3893 185.531 88.3281C180.026 83.8157 175.711 77.8647 173.133 71.231C172.502 72.806 171.812 74.4628 170.451 75.4748C169.09 76.4867 166.843 76.5024 165.947 75.0628C165.456 74.2725 165.484 73.2773 165.227 72.3829C164.647 70.3567 162.711 69.0739 160.915 67.9701C158.738 66.6301 156.171 65.2398 153.753 66.0749C151.337 66.91 150.778 71.2601 153.303 71.662C150.95 71.7471 151.027 75.4031 152.369 77.3386C153.709 79.2741 155.597 81.6843 154.311 83.6567C153.169 85.4052 150.278 85.234 149.131 86.9769C148.023 88.6572 149.227 90.8233 150.069 92.6502C150.911 94.4771 150.888 97.3529 148.915 97.7436C147.227 98.0772 146.007 96.1238 145.69 94.4346C145.194 91.7759 145.545 88.8912 144.302 86.4877C143.06 84.0854 139.069 82.9526 137.819 85.3515C137.133 82.9067 135.151 80.8671 132.727 80.1092C130.757 79.4935 128.564 79.6805 126.692 78.8073C123.896 77.5021 122.638 74.2826 121.639 71.3609C125.293 69.272 129.184 66.9201 130.813 63.0401C131.252 61.9957 131.536 60.8247 132.365 60.0523C133.108 59.3561 134.169 59.1075 134.996 58.5131C135.824 57.9176 136.354 56.6101 135.608 55.9149C136.682 55.2589 137.996 55.0048 139.235 55.2142C141.356 58.0911 134.851 62.9953 137.914 64.839C139.565 65.8331 141.349 63.7912 142.202 62.064C143.537 62.6013 144.871 63.1397 146.205 63.6782C147.928 62.28 145.905 59.6068 143.936 58.5915C141.963 57.5762 139.467 55.7481 140.455 53.7634C142.22 53.732 143.984 53.6996 145.749 53.6682C145.861 51.9835 144.742 50.2909 143.148 49.7334C144.058 48.333 144.964 46.9315 145.874 45.5311C145.048 44.6221 143.71 44.2146 142.518 44.5079C146.088 43.9818 149.579 42.8903 152.812 41.2862C155.459 44.3075 157.95 47.4666 160.272 50.7443C160.643 51.2704 161.026 51.848 161.013 52.4928C160.982 53.8999 159.281 54.5011 158.052 55.1873C156.823 55.8735 156.081 58.0542 157.446 58.4023C157.258 59.4434 155.695 59.4333 154.815 58.8456C153.937 58.259 153.13 57.3355 152.074 57.3971C150.078 57.5124 150.406 61.033 152.315 61.6263C154.225 62.2207 156.176 60.9882 157.798 59.8173C161.528 63.1834 165.977 65.7503 170.756 67.2973C168.827 66.8954 167.421 64.8032 167.778 62.8655C170.017 63.5103 172.151 64.5222 174.066 65.8488C175.693 63.8696 173.607 60.9949 171.476 59.5755C169.344 58.156 166.675 56.3985 167.009 53.8585C169.808 53.7891 172.583 55.3854 173.932 57.837C174.992 56.3291 176.053 54.8224 177.113 53.3145C175.913 49.3495 168.265 50.5629 167.467 46.4983C167.314 45.7135 167.469 44.8135 166.977 44.1833C166.213 43.2027 164.683 43.6829 163.442 43.6448C159.095 43.5094 156.463 36.2275 152.449 37.9077C154.126 34.7666 149.357 30.7904 146.57 33.0057C148.1 33.5744 149.766 34.3659 150.324 35.9017C150.884 37.4376 149.255 39.5376 147.829 38.7372C146.388 37.9279 147.077 35.6454 146.281 34.1968C145.315 32.4326 142.4 32.7841 141.228 34.4196C140.056 36.0551 140.202 38.285 140.67 40.2418C139.702 40.2182 138.735 40.1936 137.766 40.1701C137.555 37.432 138.085 34.6401 139.292 32.1718C138.157 30.4792 135.578 32.1046 134.329 33.7155C133.017 35.408 131.666 37.1846 131.255 39.2869C130.846 41.3881 131.705 43.9045 133.707 44.6613C134.992 45.1471 136.478 44.837 137.754 45.3396C140.679 46.4927 139.525 51.9499 136.385 51.8212C135.415 50.226 134.848 48.389 134.747 46.524C133.234 46.9673 131.824 47.7565 130.652 48.811C129.118 45.0217 126.984 41.4765 124.351 38.3488C124.977 37.1387 125.602 35.9286 126.227 34.7185C128.746 35.82 131.976 33.1233 131.339 30.4478C129.244 29.8613 127.045 29.2702 124.924 29.7493C122.803 30.2273 120.843 32.1662 121.137 34.32C121.314 35.6118 122.233 36.6842 122.571 37.9436C122.909 39.2029 122.151 40.9627 120.866 40.7511C120.195 43.8116 126.68 43.8844 126.971 47.0042C127.174 49.1927 124.205 50.0547 122.005 50.0245C122.647 52.1335 122.549 54.4597 121.729 56.5071C120.081 53.4119 120.982 49.1905 123.752 47.0389C122.091 44.4844 118.247 43.6795 115.7 45.3531C116.652 46.8083 118.16 47.8908 119.845 48.3274C118.956 49.3573 118.068 50.3883 117.178 51.4182C115.254 50.0334 112.615 51.1204 110.247 51.2558C107.88 51.3913 105.002 48.7763 106.675 47.0949C105.253 46.233 103.319 45.9397 101.968 46.9091C100.615 47.8785 100.501 50.3413 102.012 51.0432C98.8651 51.8514 93.6507 46.0662 91.3749 50.4991C89.9499 45.99 87.6607 44.6456 83.1449 44.4139C80.147 44.2605 71.2644 42.0418 69.7341 44.5605C69.6065 44.237 68.3516 41.0601 68.4109 41.0343Z" fill="#EEEEEE"/>
<path d="M76.7371 29.2054C75.0322 29.3879 74.0807 31.2998 73.8624 33.0003C73.6441 34.7007 73.8098 36.5276 72.9725 38.0243C72.7665 38.3937 72.4978 38.7452 72.4306 39.1627C72.2426 40.3583 73.793 41.1229 74.9886 40.9326C78.4711 40.3762 80.6596 35.6153 84.1365 36.2074C84.1712 37.141 84.2071 38.0746 84.2418 39.0083C86.531 39.0284 88.8247 38.6959 91.0155 38.0288C91.6826 38.4609 91.311 39.5948 90.5979 39.9475C89.8848 40.299 89.043 40.1814 88.2516 40.2542C87.4601 40.3269 86.559 40.7546 86.4739 41.5449C88.0042 41.1016 89.6027 40.6538 91.1655 40.9527C92.7304 41.2527 94.226 42.5524 94.1756 44.1442C91.9569 44.0446 89.7303 44.1252 87.5273 44.3849C88.7408 45.8267 90.9427 45.6554 92.8166 45.8581C94.6883 46.0607 96.9137 47.5618 96.251 49.3261C98.7877 46.6517 103.022 45.7551 106.427 47.17C107.277 47.5238 108.083 48.0085 108.987 48.1898C109.89 48.3712 110.959 48.163 111.464 47.3928C111.969 46.6226 111.466 45.314 110.546 45.3442C111.74 45.1797 112.785 44.2293 113.065 43.0584C111.012 43.7255 108.541 42.5882 107.713 40.5945C106.963 38.7866 107.41 36.4638 106.062 35.0432C107.236 35.3958 108.406 33.9988 108.121 32.8055C107.837 31.6122 106.552 30.8655 105.325 30.8353C104.516 30.8151 103.653 31.0838 103.176 31.7364C102.699 32.3891 102.786 33.4592 103.486 33.8622C102.541 33.401 101.595 32.9409 100.65 32.4808C100.274 34.7958 104.823 36.1772 103.757 38.2661C103.075 39.5971 100.759 38.7575 100.486 37.2877C100.307 36.3205 100.53 35.0331 99.644 34.6055C97.9537 33.7895 96.7212 37.9336 95.107 36.9776C95.2077 36.0485 95.3107 35.1193 95.4103 34.1902C93.3293 34.0245 91.1923 34.7757 89.6733 36.2074C89.8613 35.3063 90.0494 34.4063 90.2397 33.5062C87.9807 32.2536 85.7441 36.691 83.3071 35.8481C85.6511 36.6597 90.9024 32.0767 86.7728 30.1368C85.7821 29.6711 83.7179 30.3976 82.6186 30.3203C80.6853 30.1826 78.676 28.9983 76.7371 29.2054Z" fill="#EEEEEE"/>
<path d="M86.9963 19.5998C85.3933 18.7994 83.4455 19.6681 82.0876 20.8346C80.7275 22.001 79.5969 23.4955 77.9748 24.2533C77.2069 24.6115 76.2979 24.8321 75.8232 25.5339C78.5188 25.497 81.2122 25.3145 83.8888 24.9877C83.7376 25.8978 83.2809 26.753 82.6092 27.3855C83.8641 27.8433 84.9074 26.2661 85.0798 24.9418C85.1347 24.5298 85.1828 24.0652 85.5108 23.81C85.7728 23.6052 86.1366 23.6029 86.4646 23.5503C87.5997 23.3678 88.5982 22.291 88.4605 21.1491C88.3206 20.0073 86.8228 19.2047 85.8959 19.8864" fill="#EEEEEE"/>
<path d="M95.4122 27.1052C95.7424 26.9283 95.9238 26.5119 95.8275 26.1492C94.1528 26.204 92.5565 24.8126 92.3841 23.1458C91.4315 22.5368 89.9729 23.0114 89.5598 24.0637C89.1467 25.116 89.8945 26.4548 91.0072 26.6574C89.3829 27.3515 87.7609 28.0455 86.1377 28.7384C89.2385 30.4098 92.9159 26.7705 96.3615 27.5015C96.3615 27.9179 96.3592 28.3343 96.357 28.7508C94.8704 28.7698 93.405 29.4549 92.439 30.5855C95.0036 30.8139 97.6387 30.1713 99.8116 28.7899C100.426 28.3993 101.036 27.938 101.757 27.8362C102.391 27.7466 103.023 27.947 103.657 28.0366C105.155 28.2481 107.054 27.3996 106.999 25.8872C105.99 25.5492 104.909 25.4171 103.847 25.5022C103.524 23.5376 101.069 22.2625 99.2731 23.1278C99.3033 24.4812 99.9336 25.81 100.966 26.6888C99.947 27.5798 98.3529 27.741 97.1787 27.0705C96.6189 26.7526 96.1051 26.2544 95.4626 26.2511C94.7741 26.2477 93.8774 26.7459 93.5271 26.1514" fill="#EEEEEE"/>
<path d="M97.344 17.2957C94.8163 16.9945 92.2058 17.4289 89.9121 18.5315C91.1513 19.0912 92.3916 19.6498 93.6309 20.2095C93.913 20.3372 94.2062 20.4659 94.5163 20.4614C94.7895 20.4569 95.0503 20.3472 95.301 20.2386C96.4944 19.7259 97.691 19.2121 98.8844 18.6994C98.6784 18.3961 98.4713 18.0927 98.2631 17.7905C98.797 18.152 99.6008 17.6259 99.6366 16.9822C99.6724 16.3385 99.1295 15.7744 98.5127 15.5829C97.8981 15.3926 97.231 15.4956 96.6041 15.6456C95.8764 15.8191 95.1611 16.052 94.4682 16.3397C94.8331 17.1031 95.5507 17.6875 96.3723 17.8878C96.3858 18.189 96.3981 18.4912 96.4115 18.7923" fill="#EEEEEE"/>
<path d="M115.013 17.6743C114.465 17.7023 114.137 17.0497 114.112 16.5C114.089 15.9504 114.206 15.3571 113.935 14.8791C113.268 13.7003 111.462 14.5735 110.125 14.3586C109.331 14.2309 108.677 13.6757 107.923 13.3947C107.168 13.1149 106.097 13.2716 105.881 14.0462C105.638 14.9138 106.698 15.6101 107.599 15.6291C108.498 15.647 109.427 15.3269 110.281 15.6123C110.442 15.6649 110.6 15.7444 110.701 15.8787C111.335 16.7273 109.05 17.3474 109.263 18.3863C109.366 18.8967 110.006 19.0568 110.524 19.1117C111.292 19.1945 112.061 19.2762 112.832 19.3591C113.632 19.4453 114.52 19.5079 115.162 19.0255C115.805 18.543 115.82 17.2915 115.04 17.0967" fill="#EEEEEE"/>
<path d="M119.083 25.7901C119.533 25.2662 119.258 24.392 118.696 23.9912C118.134 23.5893 117.402 23.539 116.711 23.5334C114.698 23.5199 112.681 23.7796 110.738 24.3024C110.135 24.4647 109.509 24.6528 108.899 24.5229C108.289 24.3931 107.722 23.811 107.86 23.2031C107.025 24.1401 108.028 25.6972 109.239 26.0207C110.45 26.3443 111.734 25.9704 112.985 26.0375C114.237 26.1047 115.671 26.9667 115.538 28.2126C115.508 28.5104 115.389 28.8227 115.512 29.0958C115.659 29.4216 116.077 29.5201 116.433 29.5033C118.098 29.4249 119.376 27.4603 118.768 25.9066C118.368 25.9692 117.939 25.7364 117.773 25.367C118.502 25.0793 119.076 24.4166 119.253 23.6509C117.892 23.1371 116.307 23.2602 115.041 23.9778" fill="#EEEEEE"/>
<path d="M118.377 32.6876C119.07 32.1839 118.611 30.9458 117.789 30.7029C116.97 30.46 116.101 30.8954 115.424 31.4182C115.38 32.1223 115.337 32.8276 115.295 33.5317C114.481 33.3593 113.6 33.5306 112.912 33.9951C114.114 34.3164 115.1 35.3396 115.373 36.553C114.231 37.3366 112.419 36.7859 111.905 35.4997C111.667 34.9008 111.582 34.0959 110.97 33.8978C110.102 33.6168 109.596 34.9892 109.997 35.8075C111.052 37.9714 114.275 37.8303 116.073 39.4333C116.718 40.0099 117.7 40.8326 118.246 40.1621C118.684 39.6292 118.115 38.8748 117.588 38.4315C118.224 38.5109 118.902 38.5703 119.478 38.2915C120.058 38.0117 120.458 37.2684 120.146 36.7086C119.982 36.4176 119.675 36.243 119.416 36.0336C118.464 35.2646 118.119 33.8328 118.615 32.7145C118.272 32.5701 117.929 32.4246 117.585 32.2802" fill="#EEEEEE"/>
<path d="M149.921 26.9492C147.746 25.6428 145.046 25.2387 142.581 25.8533C140.801 26.2966 139.138 27.2481 137.308 27.3757C134.633 27.5626 132.073 25.8846 130.615 23.6346C132.642 22.2453 135.606 24.97 137.742 23.7543C138.359 23.404 138.785 22.7692 139.432 22.4815C140.093 22.1882 140.855 22.3103 141.566 22.4379C144.988 23.0502 148.409 23.6637 151.831 24.276C152.233 22.8129 150.983 21.1405 149.466 21.1125C151.259 20.3904 153.051 19.6684 154.845 18.9464C155.748 18.5814 156.716 18.1639 157.21 17.3221C157.702 16.4814 157.352 15.1157 156.386 14.9937C160.512 13.5574 164.513 11.7529 168.319 9.60695C167.936 8.94425 167.551 8.28155 167.17 7.61884C169.817 7.89198 172.561 7.08263 174.636 5.41468C171.665 5.16952 168.65 5.45162 165.775 6.24306C170.721 6.86658 175.839 6.03485 180.332 3.87882C178.717 2.47281 175.78 4.30308 174.191 2.86909C173.714 2.43923 173.475 1.78996 172.991 1.37017C172.394 0.855234 171.543 0.782471 170.756 0.739933C162.686 0.307832 154.584 0.536196 146.551 1.42279C145.228 1.56943 143.555 2.08101 143.479 3.4109C141.557 3.33142 139.633 3.25194 137.712 3.17246C136.328 5.03631 133.603 5.75947 131.477 4.8281C130.995 5.59043 130.517 6.35276 130.036 7.1151C131.378 8.04087 133.057 8.46737 134.679 8.29386C135.67 10.3368 138.884 10.7846 140.396 9.08978C141.068 11.4048 144.53 10.9704 146.583 9.7077C148.636 8.44498 151.273 6.833 153.197 8.28602C150.643 10.2629 147.368 11.2883 144.143 11.1193C144.95 12.0921 145.758 13.0638 146.565 14.0365C144.584 14.1586 142.826 12.8981 141.093 11.9309C139.361 10.9626 137.089 10.282 135.486 11.4551C136.934 12.6361 138.383 13.8171 139.831 14.9993C135.841 12.8981 131.85 10.7958 127.861 8.69462C126.691 8.07893 125.338 7.44645 124.098 7.90654C122.861 8.36662 122.488 10.5327 123.761 10.8797C122.773 11.0611 121.92 11.8492 121.667 12.8208C124.03 13.0111 126.355 13.6683 128.469 14.744C127.473 15.0631 126.479 15.3832 125.484 15.7023C127.756 16.4422 130.03 17.1821 132.302 17.9221C132.765 18.0732 133.295 18.2199 133.721 17.9837C134.15 17.7463 134.304 17.2213 134.543 16.7937C135.256 15.5142 137.089 15.0216 138.349 15.7717C138.06 16.4579 137.771 17.1441 137.483 17.8292C138.557 17.8348 139.631 17.8415 140.704 17.8482C140.724 18.437 140.741 19.027 140.759 19.6158C142.316 19.8565 143.916 19.8117 145.457 19.4848C144.895 21.5726 141.863 21.7561 139.974 20.705C138.086 19.6539 136.593 17.8527 134.515 17.2639C135.177 18.8176 136.242 20.1979 137.575 21.2345C134.799 20.7878 131.908 21.0632 129.267 22.0282C129.009 21.4707 128.751 20.9143 128.493 20.358C126.32 21.2591 126.648 24.4025 127.356 26.6458C127.564 27.3041 127.78 27.9802 128.218 28.5153C129.206 29.7276 130.975 29.8676 132.54 29.9135C134.893 29.9817 137.247 30.0489 139.603 30.1161C142.877 30.2101 150.046 31.7504 149.921 26.9492Z" fill="#EEEEEE"/>
<path d="M124.099 24.4163C124.744 23.9719 125.911 24.3469 126.209 23.6226C126.434 23.0763 125.851 22.5569 125.337 22.2681C124.821 21.9793 124.209 21.5304 124.351 20.9572C123.892 21.0233 123.41 20.9237 123.015 20.6819C123.999 20.4233 124.985 20.1636 125.969 19.905C126.343 19.8065 126.82 19.4673 126.597 19.1493C126.523 19.0408 126.386 18.9937 126.256 18.9613C125.646 18.8046 124.983 18.7844 124.448 18.4531C123.912 18.1217 123.613 17.29 124.079 16.8668C123.742 16.8366 123.405 16.8064 123.069 16.775C123.053 16.5075 123.039 16.2388 123.023 15.9713C121.28 15.9243 119.538 15.7821 117.809 15.5459C117.555 16.7123 118.679 17.956 119.864 17.8239C120.057 17.8027 120.268 17.7557 120.428 17.8665C120.568 17.9639 120.612 18.1486 120.686 18.3031C120.906 18.7654 121.525 18.9882 121.991 18.7743C121.853 19.1102 121.624 19.4079 121.33 19.6229C121.892 19.9229 122.514 20.1165 123.145 20.1927C122.647 20.5889 122.056 20.8688 121.433 21.0043C121.69 21.2125 121.947 21.4218 122.204 21.63C121.545 21.6423 120.887 21.6558 120.229 21.6692C120.027 22.2882 120.633 22.8827 121.236 23.1233C121.906 23.3886 125.163 25.4629 123.209 26.3876C122.101 26.9126 121.637 25.0823 122.028 24.3827C122.649 25.8167 122.459 27.8149 123.545 29.0709C124.338 29.9854 125.543 30.1556 126.315 28.9489C127.647 26.86 124.422 26.2342 124.099 24.4163Z" fill="#EEEEEE"/>
<path d="M143.596 185.909C142.822 187.982 145.317 190.404 147.365 189.567C147.955 189.327 148.471 188.888 149.101 188.778C150.861 188.47 151.874 190.686 152.248 192.434C152.675 194.435 153.09 196.572 152.344 198.476C151.45 200.758 149.006 202.351 148.72 204.786C148.486 206.775 149.798 208.828 149.124 210.715C148.82 211.571 148.137 212.25 147.818 213.1C147.243 214.625 147.93 216.305 148.605 217.787C150.849 222.714 153.092 227.64 155.335 232.566C155.84 233.674 156.381 234.828 157.349 235.567C158.119 236.155 159.088 236.42 159.903 236.942C161.236 237.791 162.052 239.236 162.815 240.622C164.224 243.186 165.651 245.798 166.254 248.66C167.076 252.565 166.303 256.608 165.529 260.523C164.398 266.246 163.267 271.971 162.136 277.695C160.892 283.992 159.647 290.288 158.402 296.585C159.733 295.778 160.721 294.425 161.084 292.911C161.72 297.005 160.911 301.309 158.836 304.895C158.655 303.349 158.475 301.803 158.296 300.257C156.773 303.544 155.987 307.167 156.012 310.788C156.016 311.44 156.071 312.155 156.523 312.623C156.954 313.069 157.62 313.167 158.168 313.454C159.359 314.077 159.87 315.734 159.237 316.92C159.867 317.065 160.496 317.211 161.127 317.357C162.102 318.13 159.797 319.212 159.809 320.457C159.811 320.963 160.222 321.36 160.6 321.695C162.384 323.266 164.167 324.836 165.948 326.406C167.189 326.773 168.48 327.143 169.758 326.944C171.038 326.746 172.299 325.801 172.417 324.513C172.579 322.743 170.74 321.561 169.548 320.241C167.703 318.192 167.252 315.179 167.717 312.46C168.181 309.742 169.449 307.235 170.697 304.778C169.89 304.474 169.082 304.169 168.273 303.866C168.334 302.05 170.186 300.924 171.356 299.535C173.485 297.011 173.251 292.832 170.855 290.559C171.741 289.935 172.628 289.31 173.514 288.685C174.242 289.848 174.97 291.01 175.698 292.172C177.517 290.713 178.196 287.998 177.283 285.852C181.405 286.909 186.062 283.531 186.339 279.287C185.318 279.252 184.513 278.08 184.846 277.115C185.178 276.15 186.536 275.723 187.36 276.325C186.906 277.503 188.25 278.79 189.505 278.634C190.76 278.479 191.696 277.353 192.118 276.162C192.542 274.972 192.577 273.684 192.811 272.442C193.187 270.451 194.088 268.561 195.4 267.015C196.489 265.73 197.884 264.637 198.52 263.075C198.985 261.932 198.99 260.664 199.187 259.446C199.832 255.472 202.761 251.951 206.553 250.596C206.711 252.372 209.514 252.005 210.829 250.801C212.795 249.003 214.121 246.519 214.524 243.885C214.876 241.573 214.563 239.08 215.657 237.012C216.121 236.138 216.822 235.377 217.087 234.423C217.314 233.607 217.196 232.739 217.24 231.892C217.481 227.346 222.349 223.757 221.782 219.241C221.414 216.307 218.863 214.207 216.506 212.425C212.902 209.703 209.076 206.885 204.596 206.326C201.752 205.972 198.691 206.534 196.132 205.237C197.269 205.168 198.075 203.98 198.135 202.843C198.192 201.704 197.699 200.62 197.219 199.586C196.893 198.888 196.567 198.19 196.242 197.493C194.921 194.66 192.755 191.334 189.661 191.779C188.74 191.912 187.73 192.374 186.947 191.873C186.227 191.414 186.149 190.417 185.757 189.658C184.231 186.689 178.448 187.901 177.571 184.679C177.343 183.839 177.534 182.822 176.93 182.196C176.44 181.688 175.645 181.68 174.941 181.706C171.743 181.823 168.544 181.941 165.345 182.058C165.238 183.313 164.419 184.483 163.274 185.011C163.44 185.748 163.607 186.483 163.775 187.22C163.513 188.527 161.315 188.367 160.74 187.164C160.165 185.961 160.718 184.532 161.394 183.381C162.07 182.232 162.901 181.06 162.88 179.727C161.431 179.032 159.96 180.543 158.912 181.763C157.864 182.983 155.811 184.042 154.852 182.75C154.974 184.079 155.099 185.407 155.221 186.735C153.159 188.535 149.445 187.748 148.291 185.267C147.493 186.252 146.616 187.292 145.396 187.634C144.176 187.977 142.58 187.212 142.584 185.945C143.208 188.685 145.919 190.795 148.727 190.728" fill="#EEEEEE"/>
<path d="M140.69 159.652C141.665 160.636 143.177 159.155 144.554 158.984C145.881 158.819 146.972 159.936 147.969 160.829C148.966 161.723 150.52 162.474 151.557 161.627C152.055 163.699 154.935 164.733 156.636 163.451C156.482 164.182 157.445 164.682 158.182 164.552C158.916 164.423 159.574 163.959 160.32 163.905C161.395 163.827 162.437 164.783 162.449 165.863C162.472 166.258 161.919 166.404 161.538 166.304C161.153 166.204 160.728 166.006 160.39 166.212C160.152 166.358 160.062 166.652 159.897 166.876C159.298 167.693 158.036 167.383 157.078 167.052C156.121 166.722 154.756 166.626 154.391 167.571C157.4 168.166 160.532 168.12 163.523 167.436C163.276 167.671 163.457 168.125 163.769 168.264C164.081 168.403 164.44 168.325 164.771 168.245C166.048 167.938 167.324 167.632 168.601 167.325C169.369 167.792 170.395 167.794 171.166 167.332C171.113 167.682 171.058 168.033 171.006 168.384C172.506 169.033 174.438 168.412 175.28 167.011C173.157 166.66 171.034 166.308 168.911 165.957C167.388 165.705 165.824 165.439 164.495 164.655C163.181 163.884 162.14 162.632 160.691 162.162C158.671 161.506 156.349 162.535 154.383 161.727C152.479 160.943 151.282 158.574 149.224 158.536C148.557 158.524 147.85 158.771 147.241 158.493C145.702 157.785 145.906 156.323 143.909 157.085C143.532 157.23 141.025 159.99 140.69 159.652Z" fill="#EEEEEE"/>
<path d="M311.268 119.383C310.3 121.38 309.858 123.604 310.241 125.786C310.897 129.546 313.813 133.021 312.991 136.752C311.718 136.42 310.447 136.086 309.174 135.764" fill="#EEEEEE"/>
<path d="M324.947 69.0571C324.869 69.2922 324.77 69.5172 324.674 69.7422L324.947 69.0571Z" fill="#EEEEEE"/>
<path d="M325.192 67.5693C325.171 66.6682 324.79 65.8263 324.203 65.1211L325.192 67.5693Z" fill="#EEEEEE"/>
</svg>
