<svg width="27" height="22" viewBox="0 0 27 22" fill="none" xmlns="http://www.w3.org/2000/svg">
<path d="M26.7001 2.55373C25.7062 2.99403 24.652 3.2829 23.5724 3.41071C24.7095 2.73036 25.5604 1.65979 25.9665 0.398505C24.8978 1.03299 23.7282 1.47977 22.5086 1.71949C21.9991 1.17601 21.3833 0.742956 20.6996 0.447179C20.0158 0.151401 19.2786 -0.000801181 18.5336 3.17151e-06C15.5262 3.17151e-06 13.0876 2.4379 13.0876 5.44597C13.0876 5.87239 13.1359 6.28848 13.229 6.68732C8.70273 6.46015 4.69013 4.29183 2.00403 0.996603C1.51972 1.82776 1.26523 2.77279 1.26667 3.73475C1.26595 4.63139 1.48673 5.51431 1.90939 6.30508C2.33205 7.09585 2.94349 7.76997 3.68939 8.26754C2.82472 8.24007 1.9791 8.00654 1.22289 7.58637C1.2222 7.60912 1.2222 7.63152 1.2222 7.65496C1.2222 10.2928 3.09922 12.4939 5.59021 12.9948C4.78812 13.2119 3.94714 13.2437 3.13094 13.0878C3.82384 15.251 5.83496 16.826 8.21804 16.8702C6.28894 18.384 3.90675 19.2052 1.45454 19.2015C1.01502 19.2015 0.581698 19.176 0.155273 19.1253C2.64534 20.7253 5.54337 21.5745 8.50313 21.5715C18.5201 21.5715 23.9978 13.2736 23.9978 6.07785C23.9978 5.84206 23.9923 5.60661 23.982 5.37254C25.0487 4.60239 25.9693 3.64777 26.7001 2.55373Z" fill="#E5E5E5"/>
</svg>
