<svg width="26" height="26" viewBox="0 0 26 26" fill="none" xmlns="http://www.w3.org/2000/svg">
<path d="M23.2578 7.39294C24.1965 9.11252 24.6869 11.0409 24.6838 13C24.6838 17.3119 22.3519 21.0787 18.8776 23.101L22.4453 12.7798C23.114 11.1126 23.3342 9.77925 23.3342 8.59463C23.3342 8.15425 23.3049 7.748 23.2578 7.39294ZM14.612 7.5075C15.3148 7.47337 15.9453 7.39294 15.9453 7.39294C16.5758 7.3125 16.5043 6.38544 15.873 6.41956C15.873 6.41956 13.9726 6.56337 12.7538 6.56337C11.6025 6.56337 9.66469 6.4025 9.66469 6.4025C9.03419 6.36838 8.94969 7.32956 9.58425 7.36287C9.58425 7.36287 10.1684 7.42625 10.803 7.46038L12.623 12.4451L10.0547 20.1175L5.80206 7.47256C6.50487 7.44331 7.13944 7.36694 7.13944 7.36694C7.76994 7.2865 7.69844 6.35944 7.06712 6.39356C7.06712 6.39356 5.17562 6.5455 3.95281 6.5455C3.73669 6.5455 3.47913 6.53737 3.20775 6.52844C5.31944 3.40925 8.92044 1.31463 13 1.31463C16.0428 1.31463 18.8102 2.47406 20.8926 4.38263C20.8414 4.38263 20.7951 4.3745 20.7399 4.3745C19.5934 4.3745 18.7761 5.37306 18.7761 6.448C18.7761 7.41325 19.3351 8.22981 19.9274 9.19019C20.3718 9.96856 20.8878 10.972 20.8878 12.415C20.8878 13.4054 20.5067 14.573 19.9989 16.1858L18.8354 20.0663L14.612 7.48963V7.5075ZM13 24.6838C11.8536 24.6838 10.7445 24.5188 9.69881 24.2101L13.2031 14.0197L16.796 23.8631C16.8212 23.9224 16.8512 23.9728 16.8805 24.024C15.6338 24.4625 14.3216 24.6859 13 24.6846V24.6838ZM1.31219 13C1.31219 11.3076 1.67619 9.69475 2.32375 8.24362L7.89669 23.5203C4.00319 21.6247 1.31219 17.6256 1.31219 13ZM13 0C5.83538 0 0 5.83538 0 13C0 20.1646 5.83538 26 13 26C20.1646 26 26 20.1646 26 13C26 5.83538 20.1646 0 13 0Z" fill="white"/>
</svg>
